<svg width="1138" height="744" viewBox="0 0 1138 744" fill="none" xmlns="http://www.w3.org/2000/svg">
<path d="M185 744C287.173 744 370 727.658 370 707.5C370 687.342 287.173 671 185 671C82.8273 671 0 687.342 0 707.5C0 727.658 82.8273 744 185 744Z" fill="#F5F5F5"/>
<path d="M749.5 717C833.723 717 902 700.658 902 680.5C902 660.342 833.723 644 749.5 644C665.277 644 597 660.342 597 680.5C597 700.658 665.277 717 749.5 717Z" fill="#F5F5F5"/>
<rect x="54" y="131" width="270" height="548" fill="#DEDEDE"/>
<rect x="71" y="147" width="236" height="516" fill="#001B36" fill-opacity="0.6"/>
<rect x="84" y="173" width="210" height="25" fill="#001B36" fill-opacity="0.69"/>
<rect x="120" y="174" width="175" height="10" fill="#FF9F43"/>
<rect x="119" y="190" width="175" height="10" fill="#28C76F"/>
<rect x="85" y="213" width="210" height="25" fill="#001B36" fill-opacity="0.69"/>
<rect x="121" y="214" width="175" height="10" fill="#FF9F43"/>
<rect x="120" y="230" width="175" height="10" fill="#28C76F"/>
<rect x="85" y="253" width="210" height="25" fill="#001B36" fill-opacity="0.69"/>
<rect x="121" y="254" width="175" height="10" fill="#FF9F43"/>
<rect x="120" y="270" width="175" height="10" fill="#28C76F"/>
<rect x="85" y="293" width="210" height="25" fill="#001B36" fill-opacity="0.69"/>
<rect x="121" y="294" width="175" height="10" fill="#FF9F43"/>
<rect x="120" y="310" width="175" height="10" fill="#28C76F"/>
<rect x="85" y="333" width="210" height="25" fill="#001B36" fill-opacity="0.69"/>
<rect x="121" y="334" width="175" height="10" fill="#FF9F43"/>
<rect x="120" y="350" width="175" height="10" fill="#28C76F"/>
<rect x="85" y="373" width="210" height="25" fill="#001B36" fill-opacity="0.69"/>
<rect x="121" y="374" width="175" height="10" fill="#FF9F43"/>
<rect x="120" y="390" width="175" height="10" fill="#28C76F"/>
<rect x="85" y="550" width="210" height="25" fill="#001B36" fill-opacity="0.69"/>
<rect x="121" y="551" width="175" height="10" fill="#FF9F43"/>
<rect x="120" y="567" width="175" height="10" fill="#28C76F"/>
<rect x="83" y="586" width="210" height="25" fill="#001B36" fill-opacity="0.69"/>
<rect x="119" y="587" width="175" height="10" fill="#FF9F43"/>
<rect x="118" y="603" width="175" height="10" fill="#28C76F"/>
<rect x="87" y="416" width="13" height="115" fill="#ADB5B7"/>
<rect x="97" y="429" width="13" height="192" transform="rotate(-90 97 429)" fill="#ADB5B7"/>
<rect x="99" y="531" width="13" height="192" transform="rotate(-90 99 531)" fill="#ADB5B7"/>
<path fill-rule="evenodd" clip-rule="evenodd" d="M241.145 437.541L147 437.947L149.27 518.864L240.783 518.47L241.145 437.541Z" fill="#3699FF"/>
<rect x="182.159" y="436.943" width="24" height="18" fill="#9CCDFF"/>
<rect x="88" y="677" width="24" height="34" fill="#C4C4C4"/>
<rect x="261" y="675" width="24" height="34" fill="#C4C4C4"/>
<rect x="114" y="619" width="162" height="39" fill="#C4C4C4"/>
<rect x="141" y="642" width="102" height="8" fill="#001B36" fill-opacity="0.7"/>
<rect x="141" y="626" width="102" height="8" fill="#001B36" fill-opacity="0.7"/>
<path d="M856.928 113.126C850.879 113.126 844.83 113.708 838.899 114.874C834.425 93.1858 819.952 74.6837 799.647 64.6684C779.334 54.6531 755.414 54.2326 734.738 63.5268C716.041 13.4791 659.096 -12.3543 607.561 5.81357C556.031 23.9768 529.425 79.2829 548.128 129.321C502.991 130.706 467.331 166.994 468.01 210.847C468.688 254.705 505.45 289.933 550.616 290H856.928C907.224 290 948 250.407 948 201.563C948 152.719 907.224 113.126 856.928 113.126Z" fill="url(#paint0_linear)"/>
<path fill-rule="evenodd" clip-rule="evenodd" d="M772.496 285.674L738.91 388.831L722.639 476.559H709.882L727.074 285.674H772.496Z" fill="#D4A181"/>
<path fill-rule="evenodd" clip-rule="evenodd" d="M784.512 285.674C782.231 342.313 784.915 371.528 785.426 376.674C785.937 381.819 792.928 415.185 809.479 478.286L795.886 473.9C769.728 416.027 760.814 385.95 757.814 378.351C754.814 370.751 746.846 339.859 733.909 285.674H784.512Z" fill="#D4A181"/>
<path fill-rule="evenodd" clip-rule="evenodd" d="M809.377 473.836C810.376 476.341 810.875 478.214 810.875 479.458C810.875 480.97 810.607 483.176 810.071 486.077C808.204 486.077 791.423 486.077 759.73 486.077C758.422 482.014 759.177 479.821 761.996 479.497C764.814 479.173 767.156 478.88 769.02 478.619L792.418 468.82C792.868 468.631 793.395 468.821 793.596 469.244C793.6 469.251 793.603 469.259 793.606 469.266L795.11 472.693C797.719 473.837 799.839 474.409 801.471 474.409C802.796 474.409 804.626 473.906 806.962 472.9L806.962 472.9C807.858 472.514 808.917 472.884 809.328 473.726C809.346 473.762 809.362 473.799 809.377 473.836Z" fill="#505E6E"/>
<path fill-rule="evenodd" clip-rule="evenodd" d="M725.48 473.836C726.478 476.341 726.978 478.214 726.978 479.458C726.978 480.97 726.709 483.176 726.173 486.077C724.306 486.077 707.526 486.077 675.833 486.077C674.525 482.014 675.28 479.821 678.098 479.497C680.917 479.173 683.258 478.88 685.122 478.619L708.52 468.82C708.97 468.631 709.498 468.821 709.699 469.244C709.702 469.251 709.705 469.259 709.709 469.266L711.213 472.693C713.822 473.837 715.942 474.409 717.573 474.409C718.899 474.409 720.729 473.906 723.064 472.9L723.064 472.9C723.96 472.514 725.02 472.884 725.431 473.726C725.449 473.762 725.465 473.799 725.48 473.836Z" fill="#505E6E"/>
<path fill-rule="evenodd" clip-rule="evenodd" d="M776.959 285.674L762.679 338.231H719.06L725.564 285.674H776.959Z" fill="#004D9C"/>
<path fill-rule="evenodd" clip-rule="evenodd" d="M784.992 285.674C789.691 298.906 790.583 316.425 787.669 338.231H743.159L730.919 285.674H784.992Z" fill="#0066CF"/>
<path fill-rule="evenodd" clip-rule="evenodd" d="M712.115 151.4C711.837 164.881 714.054 194.577 719.018 198.254L744.335 192.87C744.327 192.817 744.318 192.765 744.31 192.712C753.438 189.514 758.777 178.749 756.398 167.563L751.883 146.334C749.33 134.33 738.857 126.387 728.491 128.591L726.745 128.963C717.331 130.965 711.242 140.648 712.115 151.4Z" fill="#191847"/>
<path fill-rule="evenodd" clip-rule="evenodd" d="M745.703 165.6C748.563 159.277 749.861 151.997 747.809 144.586C741.897 123.23 716.902 133.521 714.166 145.516C711.429 157.51 717.92 185.079 724.874 185.64C727.647 185.864 732.796 182.776 737.61 177.628L740.244 207.452L761.196 202.996L745.703 165.6Z" fill="#D4A181"/>
<path fill-rule="evenodd" clip-rule="evenodd" d="M739.262 163.15C740.85 175.363 744.153 188.993 747.723 191.636L773.04 186.252C768.415 157.572 757.119 171.461 751.436 144.741C750.382 143.96 749.376 143.179 748.407 142.527L748.268 141.736C741.674 132.275 735.007 128.262 728.267 129.695C718.158 131.845 716.126 137.971 714.392 143.173C718.141 150.814 726.279 150.334 734.355 153.875C735.016 152.923 735.97 152.233 737.116 151.989C739.768 151.425 742.447 153.458 743.1 156.528C743.753 159.599 742.133 162.545 739.481 163.109C739.408 163.125 739.335 163.139 739.262 163.15Z" fill="#191847"/>
<path fill-rule="evenodd" clip-rule="evenodd" d="M732.975 228.15C723.815 227.534 711.702 224.906 699.129 215.89L693.361 227.021C701.851 236.458 714.085 244.509 725.162 244.825C733.892 245.073 738.943 234.783 732.975 228.15Z" fill="#FF8510"/>
<g filter="url(#filter0_d)">
<rect x="550.329" y="137.052" width="145.362" height="110.475" transform="rotate(-9.18279 550.329 137.052)" fill="#F5F5F5"/>
<rect x="550.902" y="137.466" width="144.362" height="109.475" transform="rotate(-9.18279 550.902 137.466)" stroke="#F5F5F5"/>
</g>
<rect x="551.569" y="137.947" width="144.362" height="17.6063" transform="rotate(-9.18279 551.569 137.947)" fill="#E9ECEF" stroke="#ADB5B7"/>
<circle cx="563.145" cy="145.288" r="3.7794" transform="rotate(-9.18279 563.145 145.288)" fill="#EA5455"/>
<circle cx="575.773" cy="143.246" r="3.7794" transform="rotate(-9.18279 575.773 143.246)" fill="#FF9F43"/>
<circle cx="588.401" cy="141.205" r="3.7794" transform="rotate(-9.18279 588.401 141.205)" fill="#28C76F"/>
<rect x="572.229" y="174.152" width="105.823" height="6.97736" transform="rotate(-9.18279 572.229 174.152)" fill="#E9ECEF"/>
<rect x="575.696" y="188.317" width="80.2396" height="6.97736" transform="rotate(-9.18279 575.696 188.317)" fill="#E9ECEF"/>
<rect x="578.016" y="202.667" width="54.656" height="6.97736" transform="rotate(-9.18279 578.016 202.667)" fill="#E9ECEF"/>
<path fill-rule="evenodd" clip-rule="evenodd" d="M678.382 240.393L667.245 233.428C665.98 227.199 664.227 224.002 661.986 223.837C660.308 222.938 662.87 230.862 659.641 230.005C656.413 229.147 648.776 222.766 647.334 223.893C645.201 225.559 646.703 231.13 648.685 233.972C652.387 239.282 655.593 241.208 663.63 243.948C667.833 245.38 672.314 248.028 677.074 251.891L678.382 240.393Z" fill="#B28B67"/>
<path fill-rule="evenodd" clip-rule="evenodd" d="M727.196 247.384C717.561 250.226 701.111 248.056 677.844 240.874C672.659 252.877 670.387 261.374 671.029 266.364C691.127 275.8 708.174 279.663 722.071 279.376C721.979 287.633 723.315 295.429 726.988 302.448C734.538 316.879 774.509 301.52 788.257 303.625C795.618 275.533 778.63 264.966 777.863 247.224C777.023 227.795 760.152 198.55 757.856 198.648L736.924 199.537C736.399 214.425 731.28 231.026 727.196 247.384Z" fill="#FF9F43"/>
<path fill-rule="evenodd" clip-rule="evenodd" d="M1022.27 354.122C1025.2 349.101 1026.75 343.313 1025.26 337.409C1020.95 320.398 997.65 328.5 994.548 338.034C991.447 347.569 995.967 369.525 1002.28 369.995C1004.79 370.183 1009.64 367.744 1014.29 363.664L1015.18 387.402L1034.5 383.928L1022.27 354.122Z" fill="#B28B67"/>
<path fill-rule="evenodd" clip-rule="evenodd" d="M983.822 327.519C983.969 326.041 984.828 324.643 986.215 324.025C986.551 323.875 986.908 323.775 987.272 323.725C987.403 323.706 987.446 323.737 987.49 323.636C987.523 323.56 987.495 323.396 987.499 323.313C987.512 323.057 987.541 322.801 987.587 322.548C987.746 321.687 988.127 320.881 988.634 320.169C989.581 318.837 990.995 317.781 992.584 317.35C993.454 317.114 994.357 317.1 995.244 317.237C995.703 317.308 996.155 317.418 996.6 317.55C996.735 317.589 997.188 317.819 997.308 317.778C997.44 317.731 997.653 317.344 997.749 317.239C998.929 315.941 1000.55 315.224 1002.25 314.93C1004.18 314.598 1006.05 314.361 1007.87 315.246C1008.26 315.433 1008.63 315.647 1008.99 315.878C1009.18 316 1009.36 316.128 1009.54 316.264C1009.65 316.346 1009.76 316.431 1009.86 316.519C1010.04 316.668 1010.02 316.73 1010.2 316.572C1010.89 315.963 1011.75 315.582 1012.67 315.531C1013.22 315.501 1013.77 315.568 1014.3 315.69C1014.48 315.732 1014.92 315.95 1015.1 315.92C1015.28 315.891 1015.62 315.555 1015.79 315.454C1016.72 314.91 1017.77 314.628 1018.84 314.61C1019.95 314.591 1021.08 314.83 1022.1 315.259C1022.58 315.465 1023.02 315.712 1023.41 316.081C1023.57 316.24 1023.73 316.412 1023.91 316.555C1024.01 316.638 1024.21 316.709 1024.28 316.826C1024.23 316.756 1025.35 316.075 1025.46 316.025C1026.04 315.758 1026.66 315.68 1027.29 315.768C1028.47 315.934 1029.57 316.584 1030.51 317.286C1031 317.646 1031.44 318.061 1031.83 318.517C1032.02 318.735 1032.19 318.963 1032.36 319.198C1032.44 319.312 1032.51 319.46 1032.6 319.558C1032.73 319.685 1032.8 319.676 1032.99 319.706C1033.96 319.862 1034.88 320.253 1035.65 320.87C1036.42 321.494 1037 322.329 1037.35 323.256C1037.37 323.311 1037.42 323.544 1037.45 323.569C1037.51 323.603 1037.69 323.551 1037.76 323.547C1038 323.532 1038.25 323.531 1038.49 323.544C1038.95 323.569 1039.4 323.644 1039.83 323.77C1041.53 324.26 1042.9 325.504 1043.74 327.031C1044.62 328.634 1044.96 330.59 1044.57 332.386C1044.51 332.676 1044.43 332.962 1044.32 333.238C1044.25 333.408 1044.22 333.413 1044.31 333.562C1044.41 333.728 1044.57 333.878 1044.68 334.037C1045.05 334.557 1045.34 335.125 1045.57 335.718C1045.94 336.691 1046.23 337.733 1046.22 338.782C1046.22 339.27 1046.15 339.758 1045.99 340.22C1045.91 340.456 1045.8 340.684 1045.68 340.9C1045.62 341.013 1045.55 341.121 1045.47 341.227C1045.43 341.287 1045.37 341.344 1045.33 341.409C1045.25 341.567 1045.21 341.457 1045.3 341.651C1045.43 341.922 1045.66 342.172 1045.81 342.43C1045.98 342.695 1046.13 342.967 1046.27 343.243C1046.57 343.802 1046.83 344.377 1047.04 344.972C1047.44 346.116 1047.64 347.378 1047.27 348.559C1047.12 349.064 1046.85 349.531 1046.49 349.921C1046.32 350.112 1046.12 350.285 1045.91 350.435C1045.8 350.513 1045.65 350.564 1045.62 350.689C1045.59 350.822 1045.72 351.051 1045.76 351.186C1046.15 352.353 1046.46 353.595 1046.31 354.833C1046.18 355.974 1045.63 357.059 1044.81 357.859C1043.21 359.413 1040.74 359.784 1038.65 359.146C1038.11 358.98 1037.59 358.746 1037.1 358.446C1036.3 360.062 1034.11 360.408 1032.49 360.281C1030.48 360.121 1028.69 359.059 1027.48 357.458C1026.53 359.16 1023.88 359.139 1022.75 357.681C1022.47 357.325 1022.27 356.913 1022.13 356.484C1022.06 356.259 1022.04 356.022 1021.97 355.797C1021.89 355.511 1021.64 355.262 1021.48 355C1021.16 354.489 1020.92 353.945 1020.81 353.353C1020.75 353.044 1020.74 352.735 1020.71 352.423C1020.69 352.142 1020.57 351.898 1020.47 351.633C1020.98 351.625 1021.56 351.384 1022 351.157C1022.43 350.934 1022.79 350.486 1023.06 350.09C1023.66 349.169 1023.94 348.057 1024.06 346.975C1024.35 344.601 1023.58 341.952 1021.09 341.124C1019.94 340.738 1016.78 341.308 1015.57 341.818C1014.31 342.355 1013.33 345.538 1013.31 345.825C1013.29 346.002 1013.35 346.208 1013.22 346.349C1012.92 346.659 1012.28 346.329 1011.99 346.162C1011.49 345.873 1011.09 345.441 1010.73 344.994C1009.95 344.021 1009.27 342.949 1008.72 341.829C1008.3 340.965 1007.97 340.055 1007.47 339.229C1006.98 338.406 1006.31 337.712 1005.4 337.36C1004.41 336.976 1003.34 336.874 1002.29 336.708C1001.26 336.544 1000.23 336.302 999.351 335.718C999.157 335.59 998.966 335.451 998.799 335.289C998.667 335.161 998.513 334.898 998.336 334.834C998.061 334.734 997.765 335.176 997.574 335.351C996.632 336.218 995.915 337.319 995.384 338.476C994.857 339.627 994.45 340.716 994.181 341.944C993.982 342.854 993.957 343.979 993.463 344.784C993.243 345.144 991.223 345.701 990.51 345.55C989.796 345.399 988.924 344.83 988.622 344.429C988.312 344.02 988.169 343.534 988.177 343.023C988.183 342.723 988.251 342.43 988.264 342.134C988.275 341.884 988.283 341.649 988.361 341.409C988.507 340.953 988.831 340.586 989.263 340.379C988.711 340.028 988.224 339.576 987.848 339.04C987.456 338.484 987.084 337.789 986.897 337.135C986.744 336.604 986.729 336.028 986.941 335.51C987.164 334.966 987.657 334.549 988.079 334.159C987.249 333.721 986.502 333.141 985.852 332.466C984.589 331.155 983.635 329.387 983.822 327.519Z" fill="#191847"/>
<path fill-rule="evenodd" clip-rule="evenodd" d="M1050.54 473.86L1011.21 577.925L983.645 654.627H967.927L1005.82 473.86L1050.54 473.86Z" fill="#1D0FAA"/>
<path fill-rule="evenodd" clip-rule="evenodd" d="M1060.26 473.86C1060.69 509.567 1060.38 557.64 1061.37 559.866C1062.04 561.35 1082.69 578.256 1123.34 610.586L1115.24 624.362C1066.98 593.244 1041.62 575.612 1039.15 571.466C1035.45 565.247 1016.86 508.02 1007.19 473.86H1060.26Z" fill="#2010BC"/>
<path fill-rule="evenodd" clip-rule="evenodd" d="M1137.59 619.857L1123.91 609.442L1112.87 622.6C1112.02 632.52 1108.73 643.645 1103.01 655.975L1105.52 658.078L1125.5 634.268L1131.08 625.071L1132.33 626.123L1137.59 619.857Z" fill="#001B36"/>
<path fill-rule="evenodd" clip-rule="evenodd" d="M985.104 669.35L984.286 652.173H967.109C958.964 657.898 948.33 662.533 935.209 666.078V669.35H966.291L976.924 667.714V669.35H985.104Z" fill="#001B36"/>
<path fill-rule="evenodd" clip-rule="evenodd" d="M1005.89 399.459C996.737 398.742 984.653 395.981 972.181 386.826L966.29 397.894C974.676 407.423 986.82 415.609 997.893 416.046C1006.62 416.391 1011.78 406.157 1005.89 399.459Z" fill="#037FFF"/>
<path d="M965.756 406.683L891.522 411.642C886.418 411.983 881.953 407.93 881.6 402.636L877.42 340.07C877.066 334.776 880.953 330.165 886.056 329.824L960.291 324.865C965.394 324.524 969.859 328.577 970.213 333.871L974.393 396.437C974.746 401.731 970.86 406.342 965.756 406.683Z" fill="#F5F5F5"/>
<path d="M965.59 404.188L891.355 409.147C887.715 409.39 884.361 406.473 884.094 402.469L879.914 339.903C879.647 335.9 882.582 332.562 886.223 332.319L960.457 327.359C964.098 327.116 967.451 330.034 967.719 334.037L971.898 396.604C972.166 400.607 969.23 403.945 965.59 404.188Z" stroke="#3699FF" stroke-opacity="0.81" stroke-width="5"/>
<path d="M950.623 354.517C954.466 354.26 957.366 350.819 957.1 346.832C956.834 342.845 953.502 339.821 949.658 340.078C945.815 340.335 942.915 343.775 943.181 347.762C943.447 351.749 946.779 354.773 950.623 354.517Z" fill="#3699FF"/>
<path d="M915.344 349.622L892.398 389.829L943.434 386.42L915.344 349.622Z" fill="#037FFF"/>
<path d="M941.824 362.356L924.873 387.66L961.99 385.18L941.824 362.356Z" fill="#3699FF"/>
<path fill-rule="evenodd" clip-rule="evenodd" d="M951.165 411.099L940.105 404.012C938.909 397.77 937.191 394.554 934.952 394.364C933.284 393.446 935.758 401.399 932.54 400.506C929.321 399.613 921.755 393.148 920.301 394.258C918.149 395.901 919.59 401.488 921.54 404.352C925.184 409.703 928.368 411.664 936.375 414.491C940.561 415.97 945.013 418.667 949.73 422.582L951.165 411.099Z" fill="#B28B67"/>
<path fill-rule="evenodd" clip-rule="evenodd" d="M999.898 418.629C990.234 421.364 973.808 419.013 950.622 411.575C945.304 423.52 942.939 431.991 943.526 436.988C963.519 446.645 980.522 450.696 994.421 450.561C994.239 458.817 995.489 466.627 999.084 473.687C1006.48 488.2 1046.61 473.282 1060.34 475.538C1068.01 447.53 1051.14 436.776 1050.56 419.026C1049.94 399.589 1033.39 370.161 1031.09 370.233L1010.15 370.891C1009.46 385.772 1004.16 402.316 999.898 418.629Z" fill="#3699FF"/>
<path fill-rule="evenodd" clip-rule="evenodd" d="M450.554 363.94C445.087 359.402 440.877 353.407 440.117 346C437.925 324.659 468.081 324.187 475.643 333.834C483.205 343.481 487.226 370.591 480.179 373.777C477.368 375.048 470.777 374.282 463.727 371.547L472.665 399.18L449.02 403.296L450.554 363.94Z" fill="#B28B67"/>
<path fill-rule="evenodd" clip-rule="evenodd" d="M465.484 337.193C462.587 339.546 460.89 343.307 458.909 348.197C458.194 348.051 457.439 348.033 456.677 348.166C453.412 348.734 451.226 351.842 451.795 355.106C452.083 356.763 453.026 358.143 454.312 359.025C453.28 361.193 452.098 363.477 450.704 365.864C443.465 363.073 436.594 352.46 440.926 340.305C442.452 317.205 475.359 325.648 480.579 320.888C483.262 328.708 480.253 335.913 465.484 337.193Z" fill="#191847"/>
<path fill-rule="evenodd" clip-rule="evenodd" d="M443.046 487.609L485.535 600.037L515.317 682.903H532.298L491.36 487.609L443.046 487.609Z" fill="#0E0850"/>
<path fill-rule="evenodd" clip-rule="evenodd" d="M432.545 487.609C432.084 526.186 432.417 578.122 431.341 580.527C430.624 582.13 408.31 600.395 364.399 635.323L373.152 650.206C425.284 616.588 452.683 597.538 455.348 593.059C459.346 586.341 479.432 524.514 489.882 487.609H432.545Z" fill="#160C7E"/>
<path fill-rule="evenodd" clip-rule="evenodd" d="M349 645.339L363.784 634.087L375.712 648.303C376.63 659.02 380.178 671.039 386.357 684.36L383.649 686.632L362.065 660.908L356.034 650.972L354.68 652.108L349 645.339Z" fill="#001B36"/>
<path fill-rule="evenodd" clip-rule="evenodd" d="M513.741 698.809L514.625 680.252H533.182C541.982 686.437 553.469 691.445 567.646 695.274V698.809H534.066L522.578 697.042V698.809H513.741Z" fill="#001B36"/>
<path fill-rule="evenodd" clip-rule="evenodd" d="M492.862 379.322L526.584 356.604C531.995 348.737 537.403 342.569 542.807 338.1C544.481 337.227 547.454 336.604 544.917 342.241C542.38 347.877 539.941 353.935 541.45 355.561C542.958 357.188 546.403 354.649 548.241 357.384C549.467 359.207 543.529 362.465 530.429 367.158L506.42 393.94L492.862 379.322Z" fill="#B28B67"/>
<path fill-rule="evenodd" clip-rule="evenodd" d="M523.753 468.594L508.054 454.801C545.15 431.878 564.922 419.794 567.372 418.549C572.884 415.746 574.932 405.945 576.437 401.031C583.583 403.212 575.609 411.254 584.725 413.89C593.045 416.295 601.898 415.23 605.059 425.411C605.447 426.663 604.666 429.42 601.109 429.006C592.248 427.975 578.453 427.664 575.463 428.914C571.387 430.618 554.15 443.845 523.753 468.594Z" fill="#B28B67"/>
<path fill-rule="evenodd" clip-rule="evenodd" d="M463.548 385.18C477.586 382.257 495.76 375.588 513.271 358.935L524.588 374.916C513.483 391.34 496.289 406.426 479.22 409.296C465.769 411.558 455.742 396.725 463.548 385.18Z" fill="#21A55C"/>
<path fill-rule="evenodd" clip-rule="evenodd" d="M493.278 435.097C505.313 436.749 524.59 431.171 551.109 418.365C559.486 431.778 563.743 441.526 563.88 447.609C541.558 462.536 521.875 470.246 505.205 472.421C506.811 482.278 506.628 491.842 503.509 500.902C497.096 519.526 446.517 508.406 430.459 513.416C416.565 481.16 434.962 465.444 432.663 444.09C430.145 420.706 445.017 382.678 447.78 382.379L472.971 379.647C476.298 397.354 485.428 416.276 493.278 435.097Z" fill="#28C76F"/>
<rect x="658" y="487" width="164" height="14" fill="#C4C4C4"/>
<rect x="699" y="668" width="85" height="14" fill="#C4C4C4"/>
<rect x="738" y="501" width="11" height="168" fill="#C4C4C4"/>
<path d="M974.042 84.5121L967.313 80.7923C967.992 77.2843 967.992 73.6855 967.313 70.1774L974.042 66.4577C974.816 66.0343 975.164 65.1573 974.911 64.3408C973.157 58.9577 970.172 54.0888 966.271 50.0364C965.67 49.4164 964.691 49.2652 963.933 49.6886L957.204 53.4083C954.377 51.0797 951.123 49.2803 947.6 48.1009V40.6765C947.6 39.8298 946.984 39.0888 946.116 38.9074C940.319 37.6675 934.38 37.728 928.867 38.9074C927.998 39.0888 927.382 39.8298 927.382 40.6765V48.116C923.876 49.3106 920.622 51.11 917.779 53.4235L911.066 49.7037C910.292 49.2803 909.328 49.4164 908.728 50.0515C904.826 54.0888 901.841 58.9577 900.088 64.3559C899.819 65.1724 900.183 66.0494 900.957 66.4728L907.685 70.1926C907.006 73.7006 907.006 77.2994 907.685 80.8074L900.957 84.5272C900.183 84.9506 899.835 85.8276 900.088 86.6441C901.841 92.0272 904.826 96.8961 908.728 100.948C909.328 101.568 910.307 101.72 911.066 101.296L917.795 97.5765C920.622 99.9051 923.876 101.705 927.398 102.884V110.323C927.398 111.17 928.014 111.911 928.883 112.093C934.68 113.333 940.619 113.272 946.132 112.093C947 111.911 947.616 111.17 947.616 110.323V102.884C951.123 101.689 954.377 99.89 957.22 97.5765L963.949 101.296C964.723 101.72 965.686 101.584 966.286 100.948C970.188 96.9112 973.173 92.0423 974.927 86.6441C975.164 85.8125 974.816 84.9354 974.042 84.5121ZM937.491 87.5816C930.526 87.5816 924.855 82.1532 924.855 75.4849C924.855 68.8166 930.526 63.3881 937.491 63.3881C944.457 63.3881 950.128 68.8166 950.128 75.4849C950.128 82.1532 944.457 87.5816 937.491 87.5816Z" fill="#CFE7FF"/>
<path d="M1087.7 134.636L1078.55 129.627C1079.47 124.903 1079.47 120.056 1078.55 115.332L1087.7 110.323C1088.75 109.753 1089.22 108.572 1088.88 107.472C1086.49 100.223 1082.43 93.6662 1077.13 88.209C1076.31 87.3741 1074.98 87.1705 1073.95 87.7407L1064.8 92.7499C1060.95 89.614 1056.53 87.1909 1051.74 85.6026V75.6044C1051.74 74.4641 1050.9 73.4663 1049.72 73.222C1041.83 71.5522 1033.76 71.6337 1026.26 73.222C1025.08 73.4663 1024.24 74.4641 1024.24 75.6044V85.6229C1019.47 87.2316 1015.05 89.6548 1011.18 92.7703L1002.05 87.761C1001 87.1909 999.686 87.3741 998.87 88.2294C993.564 93.6662 989.504 100.223 987.119 107.493C986.754 108.592 987.248 109.773 988.301 110.343L997.452 115.353C996.528 120.077 996.528 124.923 997.452 129.647L988.301 134.657C987.248 135.227 986.776 136.408 987.119 137.507C989.504 144.757 993.564 151.313 998.87 156.771C999.686 157.606 1001.02 157.809 1002.05 157.239L1011.2 152.23C1015.05 155.366 1019.47 157.789 1024.26 159.377V169.396C1024.26 170.536 1025.1 171.534 1026.28 171.778C1034.16 173.448 1042.24 173.366 1049.74 171.778C1050.92 171.534 1051.76 170.536 1051.76 169.396V159.377C1056.53 157.768 1060.95 155.345 1064.82 152.23L1073.97 157.239C1075.02 157.809 1076.33 157.626 1077.15 156.771C1082.46 151.334 1086.52 144.777 1088.9 137.507C1089.22 136.387 1088.75 135.206 1087.7 134.636ZM1037.99 138.77C1028.51 138.77 1020.8 131.46 1020.8 122.48C1020.8 113.5 1028.51 106.189 1037.99 106.189C1047.46 106.189 1055.17 113.5 1055.17 122.48C1055.17 131.46 1047.46 138.77 1037.99 138.77Z" fill="#CFE7FF"/>
<path d="M485.932 36.2477L439.932 15.9332C438.531 15.3171 437.029 15 435.512 15C433.995 15 432.493 15.3171 431.092 15.9332L385.092 36.2477C380.803 38.1268 378 42.5706 378 47.4968C378 97.9021 405.432 132.741 431.068 144.067C433.895 145.311 437.081 145.311 439.908 144.067C460.441 135.001 493 103.692 493 47.4968C493 42.5706 490.197 38.1268 485.932 36.2477ZM435.524 128.323L435.5 31.5754L477.643 50.1885C476.852 88.6337 457.973 116.49 435.524 128.323Z" fill="#CFE7FF"/>
<path d="M459 77C459 90.8072 447.807 102 434 102C420.193 102 409 90.8072 409 77C409 63.1928 420.193 52 434 52C447.807 52 459 63.1928 459 77ZM431.108 90.2373L449.657 71.6889C450.286 71.0591 450.286 70.0378 449.657 69.408L447.376 67.127C446.746 66.4971 445.725 66.4971 445.095 67.127L429.968 82.2538L422.905 75.1914C422.276 74.5616 421.254 74.5616 420.624 75.1914L418.343 77.4724C417.714 78.1022 417.714 79.1235 418.343 79.7533L428.827 90.2372C429.457 90.8671 430.478 90.8671 431.108 90.2373Z" fill="#9CCDFF"/>
<path d="M604.606 356H566.674L557.191 346H533.483C528.267 346 524 350.5 524 356V416C524 421.5 528.267 426 533.483 426H606.977C611.007 426 614.089 422.75 614.089 418.5V366C614.089 360.5 609.822 356 604.606 356Z" fill="#FF8510"/>
<path d="M614.563 371H550.79C546.285 371 542.255 374.5 541.544 379.25L533.483 426H608.637C613.141 426 617.171 422.5 617.883 417.75L623.809 382.75C624.995 376.75 620.49 371 614.563 371Z" fill="#FF9F43"/>
<defs>
<filter id="filter0_d" x="519.329" y="82.8546" width="231.129" height="202.257" filterUnits="userSpaceOnUse" color-interpolation-filters="sRGB">
<feFlood flood-opacity="0" result="BackgroundImageFix"/>
<feColorMatrix in="SourceAlpha" type="matrix" values="0 0 0 0 0 0 0 0 0 0 0 0 0 0 0 0 0 0 127 0"/>
<feOffset dx="4" dy="4"/>
<feGaussianBlur stdDeviation="17.5"/>
<feColorMatrix type="matrix" values="0 0 0 0 0 0 0 0 0 0 0 0 0 0 0 0 0 0 0.25 0"/>
<feBlend mode="normal" in2="BackgroundImageFix" result="effect1_dropShadow"/>
<feBlend mode="normal" in="SourceGraphic" in2="effect1_dropShadow" result="shape"/>
</filter>
<linearGradient id="paint0_linear" x1="708" y1="0" x2="708" y2="290" gradientUnits="userSpaceOnUse">
<stop stop-color="#9CCDFF"/>
<stop offset="0.775862" stop-color="#CFE7FF" stop-opacity="0.63"/>
</linearGradient>
</defs>
</svg>
