<svg width="1190" height="800" viewBox="0 0 1190 800" fill="none" xmlns="http://www.w3.org/2000/svg">
<path opacity="0.1" d="M1187.2 391.023H1085.23V527.425H1179.74C1179.99 528.832 1180.22 530.239 1180.5 531.635H1085.23V641.613L1085.71 641.441C1088.4 640.397 1091.07 639.287 1093.73 638.112L1095.43 637.341C1098.15 636.109 1100.83 634.792 1103.45 633.388C1104.39 632.911 1105.33 632.409 1106.25 631.895C1120.91 623.928 1134.43 613.618 1146.36 601.298C1146.7 600.968 1147.03 600.625 1147.34 600.294C1148.97 598.557 1150.56 596.806 1152.12 595.007L1153.82 593C1155.65 590.809 1157.42 588.545 1159.14 586.257L1159.89 585.253C1166.8 575.903 1172.61 565.621 1177.17 554.656C1177.31 554.325 1177.44 553.983 1177.57 553.652C1178.96 550.201 1180.21 546.701 1181.3 543.139C1181.76 541.634 1182.2 540.128 1182.59 538.623C1182.73 538.17 1182.85 537.73 1182.96 537.289C1188.61 515.443 1189.27 492.74 1189.27 470.159C1189.27 467.528 1189.27 464.884 1189.27 462.265C1189.27 453.147 1189.15 443.907 1188.99 434.789C1188.99 432.415 1188.89 430.053 1188.84 427.666C1188.7 421.604 1188.5 415.55 1188.24 409.504C1188.17 407.815 1188.1 406.138 1188 404.473C1188 403.507 1187.92 402.54 1187.86 401.573C1187.64 397.987 1187.44 394.511 1187.2 391.023Z" fill="#69B3FF"/>
<path opacity="0.1" d="M1085.23 239.176H1141.16C1131.99 225.117 1122.05 211.694 1111.38 198.984C1103.06 188.972 1094.34 179.206 1085.2 169.807L1085.23 239.176Z" fill="#69B3FF"/>
<path opacity="0.1" d="M1085.23 243.386V386.813H1186.87C1186.87 386.397 1186.81 385.968 1186.77 385.589C1186.69 384.463 1186.6 383.337 1186.5 382.199C1186.4 381.061 1186.26 379.555 1186.13 378.221C1186 376.887 1185.86 375.345 1185.71 373.925C1185.55 372.506 1185.42 371.049 1185.25 369.617C1185.09 368.185 1184.93 366.753 1184.76 365.334C1184.58 363.914 1184.41 362.47 1184.21 361.05C1184.06 359.826 1183.91 358.7 1183.75 357.513C1183.51 355.849 1183.27 354.172 1183.01 352.52C1182.99 352.273 1182.94 352.028 1182.89 351.785C1181.06 339.625 1178.56 327.597 1175.42 315.767C1172.09 303.233 1167.88 291.009 1162.81 279.209C1157.34 266.727 1151 254.738 1143.83 243.349L1085.23 243.386Z" fill="#69B3FF"/>
<path opacity="0.1" d="M843.084 391.023V527.425H1060.88V391.023H843.084ZM843.084 531.635V624.001C868.436 615.055 897.426 618.665 923.711 626.008C944.061 631.711 963.891 639.471 984.208 645.052C993.283 647.61 1002.5 649.531 1011.79 650.804L1014.07 651.073C1015.18 651.196 1016.29 651.318 1017.4 651.416L1020.73 651.673H1021.07H1022.56C1022.73 651.685 1022.9 651.685 1023.07 651.673L1024.87 651.746H1024.92C1025.78 651.746 1026.64 651.746 1027.51 651.82H1028.61C1029.47 651.82 1030.33 651.82 1031.2 651.82H1033.09H1034.63C1035.28 651.82 1035.92 651.82 1036.57 651.746C1037.61 651.746 1038.65 651.649 1039.7 651.563L1041.65 651.428L1044.04 651.22C1045.74 651.073 1047.37 650.878 1049.09 650.657C1049.75 650.572 1050.43 650.486 1051.09 650.376L1052.08 650.241C1053.76 649.996 1055.41 649.703 1057.08 649.397C1058.31 649.189 1059.55 648.932 1060.79 648.687V531.635H843.084ZM1005.07 239.127V243.337H843.084V386.813H1060.88V243.386H1049.95V239.176H1060.88V146.479C1018.51 108.821 968.992 79.325 913.84 65.7032C890.612 60.0292 866.873 57.2986 843.084 57.5644V239.176L1005.07 239.127ZM507.112 238.319L507.878 239.127H818.718V58.825C763.377 63.9041 709.412 84.4163 665.904 118.404C644.999 134.718 626.223 154.055 602.767 166.575C590.458 173.316 577.012 177.15 563.285 177.835L507.112 238.319ZM504.972 164.348V205.164L535.005 172.817C523.837 168.558 515.031 165.645 504.928 164.397L504.972 164.348ZM503.974 677.84H504.972V767.305C516.306 766.375 527.596 765.094 538.842 763.462C589.129 756.312 638.404 742.225 685.512 721.532C690.569 719.297 695.589 716.987 700.573 714.605C703.892 713.014 707.193 711.382 710.476 709.709C715.4 707.213 720.287 704.647 725.138 702.011C746.601 690.37 767.305 677.095 787.099 662.284C788.331 661.366 789.573 660.436 790.793 659.494C793.247 657.617 795.683 655.724 798.101 653.815C799.31 652.848 800.519 651.881 801.717 650.902L804.179 648.821C806.663 646.778 809.136 644.721 811.642 642.702C813.96 640.866 816.3 639.03 818.674 637.317V531.574H568.974C569.152 530.949 569.318 530.35 569.507 529.689C569.307 530.325 569.13 530.913 568.963 531.574H504.928V677.815L503.974 677.84ZM504.972 243.362V386.813H818.718V243.386L504.972 243.362ZM504.972 390.999V527.425H818.718V391.023L504.972 390.999ZM442.245 168.546L480.573 209.827V164.164C467.73 165.046 454.954 166.506 442.245 168.546ZM175.355 391.023V527.425H480.573V391.023H175.355ZM249.128 727.896C295.391 747.332 343.761 759.996 393.004 765.567H393.214C402.523 766.653 411.857 767.493 421.218 768.089H421.561C441.18 769.312 460.877 769.594 480.54 768.786V531.635H175.355L176.464 688.683L249.128 727.896ZM90.8136 527.425H151.012V391.023H127.201C124.728 395.821 122.332 400.643 120.059 405.538C118.839 408.141 117.652 410.772 116.499 413.432C100.828 449.329 90.8691 488.787 90.8136 527.425ZM90.8136 531.635C91.3016 559.343 96.9577 586.538 109.368 611.664C119.682 632.532 134.011 650.829 150.968 666.739V531.635H90.8136ZM129.386 386.813H150.968V351.32C143.189 362.694 135.998 374.544 129.43 386.813H129.386ZM264.611 239.176H473.375L474.13 238.368L473.021 237.144L414.319 173.955C396.896 177.969 379.69 183.056 362.782 189.193C361.185 189.768 359.588 190.417 358.003 190.967C325.356 203.187 294.035 219.355 264.611 239.176ZM175.355 319.181V386.813H443.032H443.088H480.606V247.29L476.326 243.447H258.467C227.923 264.637 199.988 290.093 175.355 319.181Z" fill="#69B3FF"/>
<path opacity="0.1" d="M1085.23 315.73V386.813H1186.87C1186.87 386.397 1186.81 385.968 1186.77 385.589C1186.69 384.463 1186.6 383.337 1186.5 382.199C1186.4 381.061 1186.26 379.555 1186.13 378.221C1186 376.887 1185.86 375.345 1185.71 373.925C1185.55 372.506 1185.42 371.049 1185.25 369.617C1185.09 368.185 1184.93 366.753 1184.76 365.334C1184.58 363.914 1184.41 362.47 1184.21 361.05C1184.06 359.826 1183.91 358.7 1183.75 357.513C1183.51 355.849 1183.27 354.172 1183.01 352.52C1182.99 352.273 1182.94 352.028 1182.89 351.785C1181.06 339.625 1178.56 327.597 1175.42 315.767L1085.23 315.73Z" fill="#69B3FF"/>
<path opacity="0.1" d="M1187.2 391.023H1085.23V527.425H1179.74C1179.99 528.832 1180.22 530.239 1180.5 531.635H1085.23V641.613L1085.71 641.441C1088.4 640.397 1091.07 639.287 1093.73 638.112L1095.43 637.341C1098.15 636.109 1100.83 634.792 1103.45 633.388C1104.39 632.911 1105.33 632.409 1106.25 631.895C1120.91 623.928 1134.43 613.618 1146.36 601.298C1146.7 600.968 1147.03 600.625 1147.34 600.294C1148.97 598.557 1150.56 596.806 1152.12 595.007L1153.82 593C1155.65 590.809 1157.42 588.545 1159.14 586.257L1159.89 585.253C1166.8 575.903 1172.61 565.621 1177.17 554.656C1177.31 554.325 1177.44 553.983 1177.57 553.652C1178.96 550.201 1180.21 546.701 1181.3 543.139C1181.76 541.634 1182.2 540.128 1182.59 538.623C1182.73 538.17 1182.85 537.73 1182.96 537.289C1188.61 515.443 1189.27 492.74 1189.27 470.159C1189.27 467.528 1189.27 464.884 1189.27 462.265C1189.27 453.147 1189.15 443.907 1188.99 434.789C1188.99 432.415 1188.89 430.053 1188.84 427.666C1188.7 421.604 1188.5 415.55 1188.24 409.504C1188.17 407.815 1188.1 406.138 1188 404.473C1188 403.507 1187.92 402.54 1187.86 401.573C1187.64 397.987 1187.44 394.511 1187.2 391.023Z" fill="#69B3FF"/>
<path opacity="0.1" d="M984.208 263.923V386.813H1060.88V263.923H1049.95V222.311H1005.07V263.923H984.208Z" fill="#69B3FF"/>
<path opacity="0.1" d="M1060.88 391.023H984.208V527.412H1060.88V391.023Z" fill="#69B3FF"/>
<path opacity="0.1" d="M1060.88 531.635H984.219V645.052C993.291 647.605 1002.5 649.526 1011.79 650.804L1014.07 651.073C1015.18 651.208 1016.29 651.318 1017.4 651.416L1020.73 651.673C1020.84 651.673 1020.96 651.673 1021.07 651.673C1021.56 651.673 1022.06 651.673 1022.56 651.746H1023.07C1023.67 651.746 1024.27 651.746 1024.88 651.82C1025.73 651.82 1026.6 651.82 1027.46 651.893H1028.57C1029.43 651.893 1030.29 651.893 1031.15 651.893H1033.05H1034.58L1036.53 651.82C1037.56 651.82 1038.62 651.722 1039.66 651.636L1041.59 651.502L1044 651.294C1045.68 651.134 1047.32 650.951 1049.03 650.731L1051.04 650.449L1052.03 650.314C1053.7 650.057 1055.35 649.788 1057.03 649.47C1058.27 649.262 1059.49 649.005 1060.73 648.76L1060.88 531.635Z" fill="#69B3FF"/>
<path opacity="0.1" d="M568.154 249.408H504.928V386.801H568.154V249.408Z" fill="#69B3FF"/>
<path opacity="0.1" d="M504.928 391.023V527.425H818.718V468.593H651.575V503.302H568.143V391.023H504.928Z" fill="#69B3FF"/>
<path opacity="0.1" d="M503.929 677.888H504.928V767.366C516.262 766.42 527.552 765.139 538.798 763.523C589.1 756.345 638.389 742.238 685.512 721.532C698.998 715.559 712.206 709.057 725.138 702.023C746.601 690.378 767.305 677.1 787.099 662.284C792.046 658.58 796.914 654.79 801.705 650.914C805.033 648.209 808.36 645.456 811.687 642.775C814.005 640.939 816.345 639.104 818.718 637.378V531.635H568.985C569.163 531.011 569.329 530.411 569.507 529.762C569.318 530.386 569.13 530.986 568.963 531.635H504.928V677.827L503.929 677.888Z" fill="#69B3FF"/>
<path opacity="0.1" d="M340.047 239.176H381.237V226.582H362.782V189.193C361.185 189.768 359.588 190.417 358.002 190.967V226.582H340.047V239.176Z" fill="#69B3FF"/>
<path opacity="0.1" d="M240.789 386.813H443.032H442.966H443.066H480.573V249.408H469.949V350.99H421.373V290.873H381.237V243.386H340.047V290.873H299.922V350.978H240.789V386.813Z" fill="#69B3FF"/>
<path opacity="0.1" d="M240.789 391.023V527.425H480.573V391.023H240.789ZM249.162 727.896C295.424 747.332 343.794 759.996 393.037 765.567H393.248C402.556 766.653 411.891 767.493 421.251 768.089H421.595C441.214 769.313 460.91 769.594 480.573 768.786V531.635H240.789V579.99H175.355L175.699 687.949" fill="#69B3FF"/>
<path opacity="0.1" d="M146.787 531.635H90.858C91.346 559.343 97.0132 586.538 109.412 611.664C119.726 632.544 134.066 650.828 151.012 666.739V579.99H146.787V531.635Z" fill="#69B3FF"/>
<path opacity="0.1" d="M90.8136 527.425H146.787V413.432H116.499C100.828 449.329 90.8691 488.787 90.8136 527.425Z" fill="#69B3FF"/>
<path opacity="0.1" d="M538.798 287.605H504.928V330.686H538.798V287.605Z" fill="#69B3FF"/>
<path opacity="0.1" d="M538.798 376.899H504.928V386.813H538.798V376.899Z" fill="#69B3FF"/>
<path opacity="0.1" d="M538.798 391.023H504.928V419.968H538.798V391.023Z" fill="#69B3FF"/>
<path opacity="0.1" d="M538.798 466.181H504.928V509.262H538.798V466.181Z" fill="#69B3FF"/>
<path opacity="0.1" d="M538.798 555.476H504.928V598.557H538.798V555.476Z" fill="#69B3FF"/>
<path opacity="0.1" d="M504.928 677.827H503.929H504.928V687.826H538.798V644.746H504.928V677.827Z" fill="#69B3FF"/>
<path opacity="0.1" d="M504.928 734.04V767.318C516.262 766.371 527.552 765.09 538.798 763.475V734.101L504.928 734.04Z" fill="#69B3FF"/>
<path opacity="0.1" d="M818.718 524.255H673.568V527.412H818.718V524.255Z" fill="#69B3FF"/>
<path opacity="0.1" d="M818.718 531.635H673.568V543.763H818.718V531.635Z" fill="#69B3FF"/>
<path opacity="0.1" d="M818.718 583.515H673.568V603.024H818.718V583.515Z" fill="#69B3FF"/>
<path opacity="0.1" d="M673.568 642.775V662.284H787.111C792.042 658.588 796.911 654.794 801.717 650.902C805.044 648.209 808.371 645.456 811.698 642.788L673.568 642.775Z" fill="#69B3FF"/>
<path opacity="0.1" d="M673.568 702.024V721.532H685.512C698.99 715.576 712.195 709.073 725.127 702.024H673.568Z" fill="#69B3FF"/>
<path opacity="0.1" d="M393.026 432.292H421.595V404.253H393.026V432.292Z" fill="#69B3FF"/>
<path opacity="0.1" d="M1011.71 301.631H1040.28V273.592H1011.71V301.631Z" fill="#69B3FF"/>
<path opacity="0.1" d="M1011.71 366.766H1040.28V338.727H1011.71V366.766Z" fill="#69B3FF"/>
<path opacity="0.1" d="M1011.71 431.888H1040.28V403.849H1011.71V431.888Z" fill="#69B3FF"/>
<path opacity="0.1" d="M1011.71 497.023H1040.28V468.984H1011.71V497.023Z" fill="#69B3FF"/>
<path opacity="0.1" d="M1011.71 562.171H1040.28V534.131H1011.71V562.171Z" fill="#69B3FF"/>
<path opacity="0.1" d="M1011.71 627.293H1040.28V599.254H1011.71V627.293Z" fill="#69B3FF"/>
<path opacity="0.1" d="M283.941 432.292H312.51V404.253H283.941V432.292Z" fill="#69B3FF"/>
<path opacity="0.1" d="M393.026 501.442H421.595V473.402H393.026V501.442Z" fill="#69B3FF"/>
<path opacity="0.1" d="M283.941 501.442H312.51V473.402H283.941V501.442Z" fill="#69B3FF"/>
<path opacity="0.1" d="M393.026 570.603H421.595V542.564H393.026V570.603Z" fill="#69B3FF"/>
<path opacity="0.1" d="M283.941 570.603H312.51V542.564H283.941V570.603Z" fill="#69B3FF"/>
<path opacity="0.1" d="M393.026 639.765H421.595V611.726H393.026V639.765Z" fill="#69B3FF"/>
<path opacity="0.1" d="M283.941 639.765H312.51V611.726H283.941V639.765Z" fill="#69B3FF"/>
<path opacity="0.1" d="M393.026 708.938H421.595V680.899H393.026V708.938Z" fill="#69B3FF"/>
<path opacity="0.1" d="M283.941 708.938H312.51V680.899H283.941V708.938Z" fill="#69B3FF"/>
<path opacity="0.1" d="M421.584 768.138V750.061H393.026V765.567L421.584 768.138Z" fill="#69B3FF"/>
<path opacity="0.1" d="M1085.23 351.737V367.782H1183.01V351.737H1085.23ZM1173.28 352.752H1181.25V366.778H1173.23L1173.28 352.752ZM1163.54 352.752H1171.56V366.778H1163.51L1163.54 352.752ZM1153.82 352.752H1161.84V366.778H1153.82V352.752ZM1144.09 352.752H1152.11V366.778H1144.09V352.752ZM1134.36 352.752H1142.43V366.778H1134.42L1134.36 352.752ZM1124.62 352.752H1132.64V366.778H1124.62V352.752ZM1114.89 352.752H1122.9V366.778H1114.89V352.752ZM1105.16 352.752H1113.18V366.778H1105.16V352.752ZM1095.43 352.752H1103.45V366.778H1095.43V352.752ZM1085.71 352.752H1093.73V366.778H1085.71V352.752Z" fill="#69B3FF"/>
<path opacity="0.1" d="M1085.23 398.44V414.485H1183.01V398.44H1085.23ZM1173.28 399.456H1181.25V413.469H1173.23L1173.28 399.456ZM1163.54 399.456H1171.56V413.469H1163.51L1163.54 399.456ZM1153.82 399.456H1161.84V413.469H1153.82V399.456ZM1144.09 399.456H1152.11V413.469H1144.09V399.456ZM1134.36 399.456H1142.43V413.469H1134.42L1134.36 399.456ZM1124.62 399.456H1132.64V413.469H1124.62V399.456ZM1114.89 399.456H1122.9V413.469H1114.89V399.456ZM1105.16 399.456H1113.18V413.469H1105.16V399.456ZM1095.43 399.456H1103.45V413.469H1095.43V399.456ZM1085.71 399.456H1093.73V413.469H1085.71V399.456Z" fill="#69B3FF"/>
<path opacity="0.1" d="M1085.23 445.131V461.164H1183.01V445.131H1085.23ZM1173.28 446.134H1181.25V460.16H1173.23L1173.28 446.134ZM1163.54 446.134H1171.56V460.16H1163.51L1163.54 446.134ZM1153.82 446.134H1161.84V460.16H1153.82V446.134ZM1144.09 446.134H1152.11V460.16H1144.09V446.134ZM1134.36 446.134H1142.43V460.16H1134.42L1134.36 446.134ZM1124.62 446.134H1132.64V460.16H1124.62V446.134ZM1114.89 446.134H1122.9V460.16H1114.89V446.134ZM1105.16 446.134H1113.18V460.16H1105.16V446.134ZM1095.43 446.134H1103.45V460.16H1095.43V446.134ZM1085.71 446.134H1093.73V460.16H1085.71V446.134Z" fill="#69B3FF"/>
<path opacity="0.1" d="M1085.23 491.822V507.855H1183.01V491.822H1085.23ZM1173.28 492.825H1181.25V506.851H1173.23L1173.28 492.825ZM1163.54 492.825H1171.56V506.851H1163.51L1163.54 492.825ZM1153.82 492.825H1161.84V506.851H1153.82V492.825ZM1144.09 492.825H1152.11V506.851H1144.09V492.825ZM1134.36 492.825H1142.43V506.851H1134.42L1134.36 492.825ZM1124.62 492.825H1132.64V506.851H1124.62V492.825ZM1114.89 492.825H1122.9V506.851H1114.89V492.825ZM1105.16 492.825H1113.18V506.851H1105.16V492.825ZM1095.43 492.825H1103.45V506.851H1095.43V492.825ZM1085.71 492.825H1093.73V506.851H1085.71V492.825Z" fill="#69B3FF"/>
<path opacity="0.1" d="M1085.23 538.513V554.583H1177.17C1177.3 554.252 1177.44 553.909 1177.56 553.579H1173.28V539.529H1181.25V543.017C1181.72 541.524 1182.16 540.031 1182.55 538.513H1085.23ZM1163.54 539.529H1171.56V553.542H1163.51L1163.54 539.529ZM1153.82 539.529H1161.84V553.542H1153.82V539.529ZM1144.09 539.529H1152.11V553.542H1144.09V539.529ZM1134.36 539.529H1142.43V553.542H1134.42L1134.36 539.529ZM1124.62 539.529H1132.64V553.542H1124.62V539.529ZM1114.89 539.529H1122.9V553.542H1114.89V539.529ZM1105.16 539.529H1113.18V553.542H1105.16V539.529ZM1095.43 539.529H1103.45V553.542H1095.43V539.529ZM1085.71 539.529H1093.73V553.542H1085.71V539.529Z" fill="#69B3FF"/>
<path opacity="0.1" d="M1085.23 585.18V601.212H1146.35C1146.7 600.882 1147.01 600.527 1147.34 600.209H1144.09V586.22H1152.11V594.971L1153.82 592.951V586.22H1159.14C1159.39 585.877 1159.64 585.534 1159.89 585.216L1085.23 585.18ZM1134.36 586.183H1142.43V600.209H1134.42L1134.36 586.183ZM1124.62 586.183H1132.64V600.209H1124.62V586.183ZM1114.89 586.183H1122.9V600.209H1114.89V586.183ZM1105.16 586.183H1113.18V600.209H1105.16V586.183ZM1095.43 586.183H1103.45V600.209H1095.43V586.183ZM1085.71 586.183H1093.73V600.209H1085.71V586.183Z" fill="#69B3FF"/>
<path opacity="0.1" d="M1085.23 631.907V641.613C1085.39 641.564 1085.55 641.503 1085.71 641.429V632.862H1093.73V638.076L1095.43 637.305V632.911H1103.45V633.4C1104.39 632.923 1105.33 632.421 1106.25 631.919L1085.23 631.907Z" fill="#69B3FF"/>
<path opacity="0.1" d="M274.535 147.052C280.222 138.452 280.218 129.855 274.515 121.268C282.653 127.277 290.789 127.267 298.915 121.247C293.234 129.846 293.235 138.441 298.934 147.031C290.799 141.019 282.666 141.031 274.535 147.052ZM84.8731 290.459C90.5596 281.86 90.5558 273.262 84.8533 264.675C92.991 270.684 101.127 270.675 109.253 264.654C103.571 273.254 103.573 281.849 109.272 290.438C101.137 284.426 93.0042 284.439 84.8731 290.459Z" fill="white"/>
<path d="M209.663 0.179511C209.429 0.492195 209.563 0.493872 209.323 0.179798C174.798 47.4315 168.166 87.889 172.027 118.864C172.165 119.961 172.316 121.056 172.48 122.149L172.483 122.181C177.683 156.592 195.863 179.104 201.137 184.981L199.439 186.778L202.844 193.959L216.439 193.947L219.832 186.761L218.131 184.967C222.083 180.617 225.659 175.903 228.815 170.88L228.822 170.88C229.75 169.243 230.534 169.341 236.818 175.971L252.125 192.121C255.202 195.367 257.973 194.907 257.969 191.306C257.953 182.594 257.926 180.484 257.898 160.726C257.874 145.772 254.621 140.488 244.11 135.567C252.604 103.074 250.865 56.4554 209.663 0.179511Z" fill="#E42728"/>
<path d="M216.439 193.947L202.844 193.959L199.439 186.778L202.835 183.184L216.431 183.172L219.832 186.761L216.439 193.947ZM175.609 136.515C171.518 138.364 170.512 138.315 167.116 141.909C163.72 145.504 162.361 151.904 162.376 161.531C162.397 176.82 162.371 178.932 162.386 192.104C162.393 196.411 165.903 193.518 170.551 188.599C179.437 179.194 186.125 171.665 191.289 171.752C198.109 171.867 175.609 136.515 175.609 136.515ZM209.493 5.77186e-05C216.866 10.0721 223.125 20.0033 228.136 29.4345C223.004 27.7849 216.363 26.2084 209.827 26.2679C202.569 26.3297 195.479 28.3992 190.438 30.309C197.728 16.374 204.731 6.52132 209.493 5.77186e-05Z" fill="#E42728"/>
<path opacity="0.3" d="M244.11 135.567C254.619 140.486 257.882 145.389 257.894 160.353C257.896 163.384 257.968 188.524 257.967 191.308C257.968 194.909 255.258 195.308 252.125 192.121L251.016 190.951C251.008 180.176 252.267 157.498 250.394 150.818C249.298 146.905 244.777 143.628 241.89 141.846C239.259 150.956 229.298 169.89 228.822 170.88C224.551 177.722 220.525 182.228 218.131 184.967L217.016 183.789C217.016 183.789 251.479 112.576 209.493 9.4414e-05C251.092 56.7874 252.604 103.074 244.11 135.567Z" fill="white"/>
<path d="M218.909 90.6831C212.823 97.1246 202.912 97.1331 196.817 90.702C190.721 84.2708 190.713 73.7973 196.799 67.3558C202.885 60.9142 212.795 60.9057 218.891 67.3369C224.987 73.768 224.995 84.2415 218.909 90.6831Z" fill="white"/>
<path d="M198.5 69.1502C200.977 66.5284 204.337 65.0539 207.843 65.0509C211.349 65.0479 214.712 66.5167 217.193 69.1342C219.674 71.7517 221.069 75.3034 221.072 79.0081C221.075 82.7128 219.685 86.2669 217.208 88.8887C214.731 91.5104 211.37 92.9849 207.865 92.9879C204.359 92.9909 200.996 91.5221 198.515 88.9046C196.034 86.2871 194.638 82.7354 194.636 79.0307C194.633 75.326 196.023 71.7719 198.5 69.1502ZM195.098 65.5613C188.073 72.9968 188.084 85.0776 195.119 92.4993C202.153 99.9209 213.585 99.913 220.61 92.4775C227.634 85.042 227.623 72.9612 220.589 65.5396C213.555 58.1179 202.123 58.1259 195.098 65.5613Z" fill="#E42728"/>
<path d="M202.844 193.959L216.439 193.947L218.236 321.452L197.843 321.469L202.844 193.959Z" fill="#DEDEDE"/>
<path d="M203.211 199.722L216.529 196.667L246.513 320.545L226.536 325.128L203.211 199.722Z" fill="#DEDEDE"/>
<path d="M203.817 196.305L217.441 195.961L224.763 323.593L204.326 324.109L203.817 196.305Z" fill="#DEDEDE"/>
<path d="M202.631 194.184L209.429 194.178L208.046 330.44L197.85 330.449L202.631 194.184Z" fill="#FFE0E0"/>
<path d="M204.544 197.309L211.213 198.699L184.804 332.08L174.8 329.995L204.544 197.309Z" fill="#FFE0E0"/>
<path d="M203.198 196.885L209.962 197.595L195.741 333.034L185.594 331.969L203.198 196.885Z" fill="#FFE0E0"/>
<path d="M208.525 292.012C207.013 292.012 205.501 292.168 204.018 292.478C202.899 286.696 199.281 281.763 194.205 279.093C189.128 276.423 183.148 276.311 177.98 278.788C173.306 265.445 159.07 258.557 146.188 263.401C133.306 268.244 126.655 282.989 131.33 296.33C120.047 296.7 111.133 306.374 111.302 318.066C111.472 329.76 120.662 339.152 131.952 339.17L208.525 339.17C221.098 339.17 231.291 328.614 231.291 315.591C231.291 302.568 221.098 292.012 208.525 292.012Z" fill="#EDEDED"/>
<path d="M245.595 292.012C244.083 292.012 242.571 292.168 241.088 292.478C239.97 286.696 236.352 281.763 231.276 279.093C226.198 276.423 220.218 276.311 215.05 278.788C210.376 265.445 196.141 258.557 183.258 263.401C170.376 268.244 163.725 282.989 168.401 296.33C157.117 296.7 148.203 306.374 148.373 318.066C148.542 329.76 157.732 339.152 169.023 339.17L245.595 339.17C258.168 339.17 268.362 328.614 268.362 315.591C268.362 302.568 258.168 292.012 245.595 292.012Z" fill="#EDEDED"/>
<path d="M197.476 285.827C198.988 285.827 200.5 285.982 201.983 286.293C203.101 280.511 206.72 275.578 211.795 272.907C216.873 270.237 222.853 270.125 228.021 272.603C232.695 259.26 246.931 252.372 259.813 257.216C272.695 262.058 279.346 276.804 274.671 290.145C285.954 290.514 294.868 300.189 294.699 311.881C294.529 323.574 285.339 332.966 274.048 332.984L197.476 332.984C184.903 332.984 174.71 322.428 174.71 309.405C174.71 296.383 184.903 285.827 197.476 285.827Z" fill="#EDEDED"/>
<path fill-rule="evenodd" clip-rule="evenodd" d="M472.986 451.598L378.841 452.004L381.111 532.921L472.624 532.526L472.986 451.598Z" fill="#3699FF"/>
<rect x="414" y="451" width="24" height="18" fill="#9CCDFF"/>
<rect x="298" y="532" width="708" height="49" rx="24.5" fill="#C4C4C4" stroke="#9E9E9E" stroke-width="6"/>
<rect x="91.7897" y="356.398" width="230.097" height="379.328" fill="#FFB46C" stroke="#FFB46C"/>
<rect x="83.0093" y="736.226" width="248.411" height="32.7738" fill="#FF9F43"/>
<rect x="280.985" y="682.874" width="41.4018" height="53.3526" fill="#FF9F43"/>
<rect x="91.2897" y="505.285" width="57.2097" height="72.4072" fill="#FF9F43"/>
<rect x="215" y="415.753" width="107" height="171.506" fill="url(#paint0_linear)" fill-opacity="0.41"/>
<rect x="98.0645" y="318.551" width="215.289" height="37.3468" fill="#EA5455" fill-opacity="0.88"/>
<ellipse cx="219.259" cy="337.606" rx="3.7638" ry="3.8109" fill="#E42728"/>
<ellipse cx="235.819" cy="337.606" rx="3.7638" ry="3.8109" fill="#E42728"/>
<ellipse cx="252.38" cy="337.606" rx="3.7638" ry="3.8109" fill="#E42728"/>
<ellipse cx="278.727" cy="337.606" rx="3.7638" ry="3.8109" fill="#E42728"/>
<ellipse cx="290.771" cy="337.606" rx="3.7638" ry="3.8109" fill="#E42728"/>
<ellipse cx="265.93" cy="337.606" rx="3.7638" ry="3.8109" fill="#E42728"/>
<rect width="46.9524" height="3.03069" transform="matrix(0.716686 -0.697396 0.688435 0.725298 170.329 352.82)" fill="#E42728"/>
<rect width="46.9524" height="3.03069" transform="matrix(0.716686 -0.697396 0.688435 0.725298 136.455 352.058)" fill="#E42728"/>
<rect width="46.9524" height="3.03069" transform="matrix(0.716686 -0.697396 0.688435 0.725298 104.087 352.82)" fill="#E42728"/>
<circle cx="492.865" cy="554.166" r="15" fill="#DEDEDE"/>
<circle cx="492.865" cy="554.166" r="12.5" stroke="#57586E" stroke-opacity="0.66" stroke-width="5"/>
<circle cx="600.139" cy="554.166" r="15" fill="#DEDEDE"/>
<circle cx="600.139" cy="554.166" r="12.5" stroke="#57586E" stroke-opacity="0.66" stroke-width="5"/>
<circle cx="707.413" cy="554.166" r="15" fill="#DEDEDE"/>
<circle cx="707.413" cy="554.166" r="12.5" stroke="#57586E" stroke-opacity="0.66" stroke-width="5"/>
<circle cx="807.179" cy="555.166" r="15" fill="#DEDEDE"/>
<circle cx="807.179" cy="555.166" r="12.5" stroke="#57586E" stroke-opacity="0.66" stroke-width="5"/>
<circle cx="945.563" cy="557.104" r="15" fill="#DEDEDE"/>
<circle cx="945.563" cy="557.104" r="12.5" stroke="#57586E" stroke-opacity="0.66" stroke-width="5"/>
<circle cx="389.808" cy="555.166" r="15" fill="#DEDEDE"/>
<circle cx="389.808" cy="555.166" r="12.5" stroke="#57586E" stroke-opacity="0.66" stroke-width="5"/>
<path fill-rule="evenodd" clip-rule="evenodd" d="M581.493 453.076L487.862 453.612L490.001 529.863L581.015 529.342L581.493 453.076Z" fill="#FF9F43"/>
<rect x="521" y="452" width="24" height="18" fill="#FFC995"/>
<path fill-rule="evenodd" clip-rule="evenodd" d="M1086.17 331.177C1089.96 326.481 1092.52 320.726 1092.09 314.277C1090.86 295.695 1066.38 299.783 1061.62 309.161C1056.86 318.539 1057.42 342.328 1063.58 344.004C1066.03 344.673 1071.26 343.035 1076.58 339.646L1073.24 364.614H1092.96L1086.17 331.177Z" fill="#B28B67"/>
<path fill-rule="evenodd" clip-rule="evenodd" d="M1052.88 296.16C1053.29 294.643 1054.39 293.344 1055.87 292.959C1056.23 292.866 1056.6 292.828 1056.97 292.844C1057.1 292.849 1057.14 292.89 1057.2 292.792C1057.25 292.719 1057.25 292.542 1057.27 292.457C1057.32 292.191 1057.4 291.929 1057.49 291.674C1057.8 290.804 1058.32 290.034 1058.95 289.385C1060.12 288.171 1061.71 287.333 1063.35 287.182C1064.25 287.099 1065.15 287.253 1066 287.563C1066.44 287.724 1066.87 287.924 1067.29 288.145C1067.41 288.211 1067.82 288.537 1067.95 288.516C1068.09 288.492 1068.37 288.127 1068.48 288.035C1069.88 286.902 1071.6 286.456 1073.34 286.47C1075.31 286.485 1077.2 286.589 1078.84 287.855C1079.19 288.123 1079.52 288.417 1079.83 288.726C1080 288.888 1080.16 289.057 1080.31 289.233C1080.4 289.339 1080.49 289.448 1080.58 289.559C1080.73 289.748 1080.7 289.81 1080.91 289.678C1081.7 289.172 1082.61 288.935 1083.53 289.054C1084.08 289.125 1084.61 289.299 1085.12 289.527C1085.29 289.605 1085.69 289.915 1085.87 289.918C1086.05 289.921 1086.45 289.634 1086.63 289.561C1087.64 289.166 1088.73 289.069 1089.8 289.251C1090.89 289.439 1091.97 289.902 1092.9 290.541C1093.35 290.848 1093.74 291.189 1094.05 291.646C1094.19 291.843 1094.31 292.052 1094.46 292.235C1094.55 292.342 1094.73 292.452 1094.78 292.587C1094.75 292.506 1095.98 292.006 1096.09 291.974C1096.71 291.803 1097.34 291.838 1097.94 292.048C1099.08 292.444 1100.06 293.33 1100.86 294.24C1101.28 294.707 1101.64 295.223 1101.94 295.773C1102.09 296.036 1102.23 296.307 1102.35 296.584C1102.41 296.718 1102.45 296.886 1102.53 297.006C1102.63 297.162 1102.69 297.165 1102.88 297.233C1103.81 297.577 1104.66 298.161 1105.3 298.949C1105.96 299.746 1106.38 300.728 1106.56 301.761C1106.57 301.822 1106.57 302.075 1106.61 302.108C1106.65 302.153 1106.84 302.133 1106.91 302.142C1107.16 302.172 1107.4 302.217 1107.64 302.277C1108.08 302.388 1108.52 302.551 1108.92 302.764C1110.51 303.595 1111.65 305.153 1112.2 306.905C1112.79 308.745 1112.78 310.852 1112.08 312.657C1111.97 312.949 1111.83 313.232 1111.68 313.5C1111.58 313.664 1111.55 313.664 1111.61 313.837C1111.68 314.029 1111.81 314.215 1111.89 314.402C1112.16 315.014 1112.35 315.663 1112.47 316.325C1112.67 317.412 1112.77 318.554 1112.57 319.65C1112.48 320.158 1112.33 320.655 1112.09 321.108C1111.96 321.339 1111.82 321.558 1111.66 321.761C1111.58 321.866 1111.49 321.966 1111.4 322.063C1111.34 322.118 1111.27 322.166 1111.23 322.227C1111.12 322.377 1111.09 322.254 1111.15 322.474C1111.23 322.781 1111.41 323.084 1111.52 323.383C1111.63 323.692 1111.74 324.004 1111.83 324.32C1112.02 324.959 1112.18 325.609 1112.28 326.271C1112.48 327.541 1112.44 328.895 1111.87 330.061C1111.63 330.56 1111.28 330.997 1110.86 331.338C1110.65 331.504 1110.43 331.648 1110.19 331.766C1110.07 331.826 1109.92 331.852 1109.86 331.976C1109.8 332.109 1109.89 332.373 1109.91 332.521C1110.09 333.813 1110.17 335.17 1109.81 336.437C1109.48 337.603 1108.74 338.633 1107.78 339.314C1105.92 340.637 1103.42 340.563 1101.47 339.504C1100.96 339.228 1100.49 338.885 1100.06 338.481C1098.98 340.018 1096.76 339.969 1095.18 339.531C1093.21 338.986 1091.63 337.54 1090.72 335.64C1089.48 337.24 1086.87 336.721 1086.01 334.985C1085.79 334.56 1085.67 334.092 1085.61 333.618C1085.58 333.369 1085.6 333.118 1085.57 332.87C1085.54 332.555 1085.34 332.249 1085.23 331.945C1085 331.352 1084.87 330.739 1084.86 330.099C1084.86 329.765 1084.9 329.44 1084.93 329.109C1084.95 328.81 1084.88 328.533 1084.83 328.238C1085.34 328.326 1085.95 328.182 1086.43 328.028C1086.89 327.876 1087.33 327.476 1087.66 327.111C1088.42 326.264 1088.89 325.153 1089.21 324.047C1089.91 321.62 1089.62 318.708 1087.31 317.376C1086.24 316.755 1083.01 316.757 1081.73 317.064C1080.38 317.386 1078.86 320.529 1078.78 320.824C1078.73 321.007 1078.76 321.233 1078.6 321.355C1078.25 321.623 1077.67 321.158 1077.42 320.929C1076.97 320.533 1076.65 320.006 1076.38 319.472C1075.78 318.309 1075.3 317.062 1074.96 315.788C1074.7 314.806 1074.53 313.794 1074.18 312.837C1073.84 311.885 1073.3 311.034 1072.47 310.495C1071.56 309.908 1070.51 309.599 1069.51 309.23C1068.52 308.865 1067.55 308.418 1066.78 307.643C1066.61 307.473 1066.44 307.292 1066.31 307.091C1066.2 306.932 1066.1 306.629 1065.93 306.529C1065.68 306.372 1065.31 306.779 1065.09 306.926C1064 307.654 1063.1 308.67 1062.37 309.779C1061.64 310.883 1061.04 311.944 1060.56 313.176C1060.2 314.09 1059.98 315.26 1059.35 316.009C1059.06 316.344 1056.97 316.546 1056.29 316.254C1055.61 315.962 1054.85 315.204 1054.62 314.729C1054.39 314.243 1054.33 313.709 1054.43 313.176C1054.49 312.863 1054.61 312.571 1054.68 312.263C1054.73 312.005 1054.78 311.761 1054.9 311.524C1055.13 311.075 1055.51 310.753 1055.98 310.618C1055.49 310.147 1055.09 309.583 1054.81 308.953C1054.53 308.299 1054.28 307.503 1054.21 306.784C1054.16 306.201 1054.24 305.596 1054.55 305.094C1054.86 304.568 1055.42 304.225 1055.91 303.897C1055.17 303.283 1054.53 302.537 1054.01 301.71C1052.99 300.103 1052.37 298.076 1052.88 296.16Z" fill="#191847"/>
<path fill-rule="evenodd" clip-rule="evenodd" d="M1102.56 456.74L1063.05 567.208L1035.36 648.628H1019.57L1057.63 456.74L1102.56 456.74Z" fill="#1D0FAA"/>
<path fill-rule="evenodd" clip-rule="evenodd" d="M1112.32 456.74C1112.75 494.644 1112.44 545.675 1113.44 548.038C1114.11 549.613 1134.85 567.56 1175.68 601.878L1167.54 616.502C1119.07 583.469 1093.6 564.752 1091.12 560.351C1087.4 553.75 1068.73 493.002 1059.01 456.74H1112.32Z" fill="#2010BC"/>
<path fill-rule="evenodd" clip-rule="evenodd" d="M1190 611.719L1176.25 600.664L1165.16 614.632C1164.31 625.162 1161.01 636.971 1155.27 650.06L1157.78 652.292L1177.85 627.017L1183.46 617.254L1184.72 618.37L1190 611.719Z" fill="#001B36"/>
<path fill-rule="evenodd" clip-rule="evenodd" d="M1036.83 664.257L1036 646.023H1018.75C1010.57 652.101 999.887 657.022 986.706 660.784V664.257H1017.93L1028.61 662.521V664.257H1036.83Z" fill="#001B36"/>
<path fill-rule="evenodd" clip-rule="evenodd" d="M1070.02 376.616C1060.81 376.343 1048.55 374.058 1035.57 365.015L1030.22 377.062C1039.11 386.719 1051.71 394.752 1062.84 394.627C1071.61 394.529 1076.28 383.404 1070.02 376.616Z" fill="#69B3FF"/>
<path fill-rule="evenodd" clip-rule="evenodd" d="M1045.14 352.15L999.618 330.53L954.121 352.1L999.639 372.739L1045.14 352.15Z" fill="#FFB46C"/>
<path fill-rule="evenodd" clip-rule="evenodd" d="M999.614 372.76L1045.12 352.15L1045.12 405.43L999.611 426.743L999.614 372.76Z" fill="#FF8510"/>
<path fill-rule="evenodd" clip-rule="evenodd" d="M999.617 426.743L954.103 405.429L954.103 352.15L999.614 372.76L999.617 426.743Z" fill="#FF9F43"/>
<path opacity="0.5" fill-rule="evenodd" clip-rule="evenodd" d="M1023.92 342.045L978.418 363.146L976.023 362.062L1021.58 340.935L1023.92 342.045Z" fill="#F29C1F"/>
<path opacity="0.5" fill-rule="evenodd" clip-rule="evenodd" d="M1029.97 344.959L985.542 366.388L968.619 358.723L1014.66 337.692L1029.97 344.959Z" fill="#DEDEDE"/>
<path opacity="0.5" fill-rule="evenodd" clip-rule="evenodd" d="M985.529 366.388L968.619 358.714L968.619 369.511L985.529 378.165L985.529 366.388Z" fill="#DEDEDE"/>
<path fill-rule="evenodd" clip-rule="evenodd" d="M1015.71 391.867L1004.26 384.941C1002.74 378.387 1000.86 375.069 998.601 374.986C996.882 374.102 999.764 382.401 996.49 381.626C993.216 380.85 985.3 374.399 983.897 375.653C981.821 377.509 983.548 383.356 985.648 386.288C989.573 391.768 992.866 393.677 1001.04 396.25C1005.32 397.595 1009.92 400.217 1014.85 404.117L1015.71 391.867Z" fill="#B28B67"/>
<path fill-rule="evenodd" clip-rule="evenodd" d="M1057.29 395.858C1047.46 398.257 1031.09 394.912 1008.19 385.823C1002.27 398.212 999.484 407.071 999.828 412.4C1019.41 423.675 1036.27 428.852 1050.22 429.431C1049.64 438.175 1050.51 446.521 1053.77 454.192C1060.47 469.963 1101.47 456.229 1115.13 459.333C1124.2 430.035 1107.8 417.757 1108.1 398.909C1108.43 378.268 1093.27 346.208 1090.96 346.165L1069.92 345.777C1068.5 361.519 1062.37 378.784 1057.29 395.858Z" fill="#7BBCFF"/>
<line x1="415.168" y1="752.885" x2="415.168" y2="582.525" stroke="#9E9E9E" stroke-opacity="0.74" stroke-width="9"/>
<rect x="402.986" y="581.434" width="25.364" height="9.27819" fill="#9E9E9E"/>
<rect x="392.937" y="747.236" width="47.46" height="20.83" fill="#9E9E9E"/>
<line x1="662.231" y1="751.451" x2="662.231" y2="581.091" stroke="#9E9E9E" stroke-opacity="0.74" stroke-width="9"/>
<rect x="650.049" y="580" width="25.364" height="9.27819" fill="#9E9E9E"/>
<rect x="639" y="745.802" width="47.46" height="20.83" fill="#9E9E9E"/>
<path d="M921.231 752.451V582.091" stroke="#9E9E9E" stroke-opacity="0.74" stroke-width="9"/>
<rect x="909.049" y="581" width="25.364" height="9.27819" fill="#9E9E9E"/>
<rect x="899" y="746.802" width="47.46" height="20.83" fill="#9E9E9E"/>
<path fill-rule="evenodd" clip-rule="evenodd" d="M895.048 553.612L858.015 683.741L840.596 781.444H823.113L840.565 553.612H895.048Z" fill="#D4A181"/>
<path fill-rule="evenodd" clip-rule="evenodd" d="M911.691 553.612C909.107 621.214 910.126 658.085 910.705 664.227C911.283 670.369 914.566 711.503 936.94 783.505H918.756C889.126 714.431 878.782 673.297 875.384 664.227C871.986 655.157 861.949 618.285 847.296 553.612H911.691Z" fill="#D4A181"/>
<path fill-rule="evenodd" clip-rule="evenodd" d="M895.843 553.612C886.21 598.39 869.549 669.866 845.86 768.042H820.29C818.401 667.274 826.435 600.952 840.349 553.612H895.843Z" fill="#69B3FF"/>
<path fill-rule="evenodd" clip-rule="evenodd" d="M911.82 553.612C909.29 621.214 915.848 687.813 936.164 769.094H908.882C879.197 701.051 857.922 634.78 843.381 553.612H911.82Z" fill="#7BBCFF"/>
<path fill-rule="evenodd" clip-rule="evenodd" d="M939.531 796.907L938.528 780.413C932.654 782.165 925.296 781.477 916.455 778.351C906.949 785.217 894.981 789.906 880.553 792.417L880.553 792.417C879.452 792.608 878.712 793.674 878.9 794.796C878.912 794.869 878.928 794.941 878.948 795.012L880.335 800H916.455H937.525L939.531 796.907Z" fill="#0E0850"/>
<path fill-rule="evenodd" clip-rule="evenodd" d="M844.499 796.907L843.495 780.413C837.621 782.165 830.263 781.477 821.422 778.351C811.916 785.217 799.949 789.906 785.52 792.417L785.52 792.417C784.42 792.608 783.68 793.674 783.867 794.796C783.88 794.869 783.896 794.941 783.915 795.012L785.302 800H821.422H842.492L844.499 796.907Z" fill="#0E0850"/>
<path fill-rule="evenodd" clip-rule="evenodd" d="M798.298 375.819C798.951 389.371 803.55 418.796 809.357 421.727L837.241 412.49C837.228 412.439 837.214 412.387 837.201 412.336C847.165 407.746 852.356 396.148 848.9 385.299L842.341 364.709C838.632 353.067 826.369 346.695 814.952 350.477L813.029 351.114C802.661 354.548 796.555 365.176 798.298 375.819Z" fill="#191847"/>
<path fill-rule="evenodd" clip-rule="evenodd" d="M836.819 384.954C839.56 378.183 840.488 370.691 837.667 363.575C829.539 343.07 802.365 357.175 800.167 369.611C797.969 382.047 807.189 408.69 814.993 408.198C818.105 408.001 823.634 404.125 828.641 398.236L833.715 427.725L856.792 420.08L836.819 384.954Z" fill="#D4A181"/>
<path fill-rule="evenodd" clip-rule="evenodd" d="M829.451 383.476C832.098 395.474 836.761 408.633 840.935 410.74L868.82 401.503C861.604 373.463 849.985 389.096 841.729 363.18C840.496 362.558 839.317 361.927 838.188 361.421L837.976 360.649C829.937 352.169 822.205 349.158 814.782 351.617C803.648 355.305 801.816 361.752 800.253 367.229C804.985 374.317 814.038 372.601 823.309 374.926C823.978 373.871 824.994 373.035 826.257 372.617C829.178 371.649 832.315 373.279 833.264 376.257C834.213 379.236 832.614 382.434 829.693 383.402C829.613 383.428 829.532 383.453 829.451 383.476Z" fill="#191847"/>
<path fill-rule="evenodd" clip-rule="evenodd" d="M834.075 460.475C821.491 462.968 804.202 463.769 784.008 455.945L780.204 473.369C795.038 483.26 814.429 489.88 829.493 486.274C841.365 483.433 844.502 467.428 834.075 460.475Z" fill="#0E0850"/>
<path fill-rule="evenodd" clip-rule="evenodd" d="M669.552 447.152L728.885 416.554L790.733 441.442L731.343 470.781L669.552 447.152Z" fill="#69B3FF"/>
<path fill-rule="evenodd" clip-rule="evenodd" d="M731.347 470.776L669.552 447.152L672.655 515.603L734.494 540.131L731.347 470.776Z" fill="#3699FF"/>
<path fill-rule="evenodd" clip-rule="evenodd" d="M734.486 540.131L793.844 509.893L790.742 441.442L731.347 470.776L734.486 540.131Z" fill="#037FFF"/>
<path opacity="0.5" fill-rule="evenodd" clip-rule="evenodd" d="M697.196 432.839L759.008 457.095L762.134 455.551L700.247 431.266L697.196 432.839Z" fill="#037FFF"/>
<path opacity="0.5" fill-rule="evenodd" clip-rule="evenodd" d="M689.309 436.963L749.712 461.706L771.797 450.797L709.275 426.667L689.309 436.963Z" fill="#DEDEDE"/>
<path opacity="0.5" fill-rule="evenodd" clip-rule="evenodd" d="M749.729 461.705L771.797 450.785L772.425 464.657L750.415 476.837L749.729 461.705Z" fill="#DEDEDE"/>
<path fill-rule="evenodd" clip-rule="evenodd" d="M764.769 497.235L747.246 491.71C743.311 483.6 739.801 479.839 736.718 480.429C734.132 479.803 740.423 489.775 735.759 489.773C731.095 489.77 718.506 483.773 716.962 485.849C714.679 488.92 718.7 496.04 722.39 499.228C729.287 505.187 734.302 506.669 746.13 507.508C752.314 507.946 759.31 509.956 767.116 513.537L764.769 497.235Z" fill="#D4A181"/>
<path fill-rule="evenodd" clip-rule="evenodd" d="M822.319 489.602C809.671 495.782 786.512 496.464 752.842 491.647C748.364 509.695 747.123 522.154 749.118 529.023C778.922 537.726 803.279 539.289 822.372 535.732C824.083 547.359 827.659 558.015 834.283 567.048C847.902 585.62 899.583 554.962 919.002 554.802C922.898 513.646 897.131 502.646 892.126 477.881C886.646 450.762 856.883 413.483 853.74 414.141L825.083 420.14C827.672 441.185 824.31 465.681 822.319 489.602Z" fill="#2B2478"/>
<defs>
<linearGradient id="paint0_linear" x1="230.447" y1="520.64" x2="321.998" y2="519.438" gradientUnits="userSpaceOnUse">
<stop stop-color="#A95300" stop-opacity="0.7"/>
<stop offset="0.935673" stop-color="#A95300" stop-opacity="0.31"/>
</linearGradient>
</defs>
</svg>
