<svg width="965" height="677" viewBox="0 0 965 677" fill="none" xmlns="http://www.w3.org/2000/svg">
<path d="M894.826 674.989H71.2806C71.2806 674.989 -100.756 545.133 89.7052 437.703C99.1423 432.379 108.134 427.255 116.679 422.327C131.304 413.849 144.685 405.853 156.953 398.342C282.617 321.223 290.088 291.362 291.542 255.416C292.586 229.783 292.41 147.316 329.822 86.0999C336.856 74.4433 345.469 63.6867 355.448 54.0971C378.27 32.4507 409.396 17.4705 451.968 15.3839C532.527 11.4082 579.627 38.8315 608.407 73.5909C618.756 86.2943 627.36 100.164 634.021 114.874C644.458 137.377 650.182 159.221 654.662 174.915C669.228 226.038 725.264 318.949 824.716 345.011C853.626 352.589 885.291 371.369 911.174 398.32C918.416 405.848 925.057 413.865 931.042 422.305C975.619 485.289 987.066 578.047 894.826 674.989Z" fill="url(#paint0_linear)"/>
<path d="M825.818 597.453H731.537V674.989H825.818H894.133V597.453H825.818Z" fill="#CFE7FF" fill-opacity="0.65"/>
<path d="M174.744 597.453H80.4756V674.989H174.744H243.071V597.453H174.744Z" fill="#CFE7FF" fill-opacity="0.65"/>
<path d="M771.272 519.983H676.991V597.508H771.272H839.587V519.983H771.272Z" fill="#CFE7FF" fill-opacity="0.65"/>
<path d="M686.022 413.98H208.802V432.123H686.022V413.98Z" fill="#CFE7FF" fill-opacity="0.65"/>
<path d="M546.789 432.134V675H560.194V432.134H546.789Z" fill="#CFE7FF" fill-opacity="0.65"/>
<path d="M556.815 486.739H669.298V474.186H556.815V486.739Z" fill="#CFE7FF" fill-opacity="0.65"/>
<path d="M662.603 432.123V674.989H676.008V432.123H662.603Z" fill="#CFE7FF" fill-opacity="0.65"/>
<path d="M220.986 432.134V675H234.391V432.134H220.986Z" fill="#CFE7FF" fill-opacity="0.65"/>
<path d="M231.015 486.739H343.497V474.186H231.015V486.739Z" fill="#CFE7FF" fill-opacity="0.65"/>
<path d="M336.8 432.134V675H350.205V432.134H336.8Z" fill="#CFE7FF" fill-opacity="0.65"/>
<path d="M686.023 413.98H537.841V432.123H686.023V413.98Z" fill="#CFE7FF" fill-opacity="0.65"/>
<path d="M470.452 300.422H310.331C309.684 300.422 309.158 300.914 309.158 301.52V388.106C309.158 388.712 309.684 389.204 310.331 389.204H470.452C471.101 389.204 471.625 388.712 471.625 388.106V301.52C471.625 300.914 471.101 300.422 470.452 300.422Z" fill="#CFE7FF" fill-opacity="0.65"/>
<path d="M400.707 351.468H376.524L349.843 414.661H386.293L400.707 351.468Z" fill="#CFE7FF" fill-opacity="0.65"/>
<path fill-rule="evenodd" clip-rule="evenodd" d="M266.674 184.213C270.721 200.333 275.995 236.569 270.613 242.253H236.565C236.562 242.188 236.558 242.123 236.555 242.058C223.935 240.548 214.12 228.982 214.12 214.938V188.286C214.12 173.217 225.422 161 239.363 161H241.711C254.371 161 264.855 171.075 266.674 184.213Z" fill="#34393E"/>
<path fill-rule="evenodd" clip-rule="evenodd" d="M227.344 209.849C221.934 202.985 218.272 194.572 218.884 185.146C220.647 157.986 255.623 163.961 262.427 177.669C269.23 191.377 268.422 226.149 259.629 228.599C256.122 229.576 248.652 227.182 241.049 222.229L245.821 258.723H217.644L227.344 209.849Z" fill="#D4A181"/>
<path fill-rule="evenodd" clip-rule="evenodd" d="M234.961 205.261C236.26 220.336 235.739 237.551 231.87 241.637H197.822C195.925 206.008 214.259 219.805 214.259 186.259C215.402 185.052 216.482 183.857 217.551 182.827L217.513 181.84C223.409 168.793 230.889 162.269 239.953 162.269C253.549 162.269 257.84 169.108 261.494 174.914C258.762 185.048 248.158 186.55 238.737 192.867C237.626 191.892 236.21 191.308 234.668 191.308C231.101 191.308 228.21 194.433 228.21 198.288C228.21 202.143 231.101 205.268 234.668 205.268C234.766 205.268 234.864 205.266 234.961 205.261Z" fill="#34393E"/>
<path fill-rule="evenodd" clip-rule="evenodd" d="M309.222 313.691L355.578 306.856C364.851 301.28 373.382 297.506 381.17 295.532C383.362 295.463 386.848 296.324 381.654 301.005C376.46 305.686 371.19 310.864 372.115 313.362C373.041 315.86 377.871 314.93 378.672 318.772C379.205 321.334 371.366 321.75 355.153 320.021L317.539 336.141L309.222 313.691ZM163.602 325.289L189.311 325.394C161.12 393.97 146.421 429.875 145.214 433.11C142.497 440.388 148.246 451.472 150.705 457.428C142.697 461.301 143.551 446.958 133.45 452.038C124.23 456.674 117.217 465.075 106.565 457.971C105.255 457.097 103.82 453.808 107.287 451.238C115.926 444.835 128.375 433.629 130.057 429.94C132.35 424.91 143.532 390.027 163.602 325.289Z" fill="#D4A181"/>
<path fill-rule="evenodd" clip-rule="evenodd" d="M234.022 237.148L254.151 238.598C259.109 287.08 286.112 317.704 346.57 307.336L354.603 369.771C298.095 377.665 248.538 353.21 238.381 286.998C235.752 269.858 233.676 252.02 234.022 237.148Z" fill="#B6C8CD"/>
<path fill-rule="evenodd" clip-rule="evenodd" d="M224.091 230.823L254.59 238.373C254.59 295.077 271.3 331.255 279.87 372.946H197.502C196.341 387.352 195.629 402.158 195.258 417.365H133.583C147.559 336.983 177.057 274.796 222.078 230.802H224.075L224.091 230.823Z" fill="#BECFD3"/>
<path fill-rule="evenodd" clip-rule="evenodd" d="M210.498 292.05C208.375 327.384 209.623 354.35 214.243 372.946H197.502C199.801 344.408 203.856 317.443 210.498 292.05V292.05Z" fill="#ADB5B7"/>
<path fill-rule="evenodd" clip-rule="evenodd" d="M216.378 371.677L298.131 529.337L359.423 662.626H372.625L269.93 371.677L216.378 371.677Z" fill="#D4A181"/>
<path fill-rule="evenodd" clip-rule="evenodd" d="M351.352 656.473C350.121 660.263 349.506 663.099 349.506 664.981C349.506 667.27 349.836 670.609 350.497 675C352.799 675 373.484 675 412.552 675C414.165 668.85 413.234 665.53 409.759 665.04C406.285 664.55 403.399 664.107 401.101 663.712L372.258 648.88C371.703 648.594 371.053 648.882 370.806 649.522C370.801 649.533 370.797 649.544 370.793 649.555L368.939 654.743C365.723 656.474 363.109 657.339 361.099 657.339C359.465 657.339 357.209 656.578 354.33 655.056L354.33 655.056C353.225 654.472 351.919 655.031 351.413 656.306C351.391 656.361 351.371 656.416 351.352 656.473Z" fill="#ADB5B7"/>
<path fill-rule="evenodd" clip-rule="evenodd" d="M342.401 641.283L367.86 632.399C356.706 593.934 343.035 551.604 326.847 505.411C310.659 459.217 293.273 414.639 274.69 371.677H202.784C223.444 426.022 245.347 475.402 268.492 519.817C291.636 564.231 316.273 604.72 342.401 641.283Z" fill="#EA5455"/>
<path fill-rule="evenodd" clip-rule="evenodd" d="M211.006 371.677C203.29 427.08 188.407 497.864 187.003 500.048C186.067 501.504 152.359 514.533 85.8809 539.135L88.7326 552.564C168.008 539.37 209.779 529.133 214.047 521.854C220.448 510.936 252.409 424.68 264.788 371.677H211.006Z" fill="#D4A181"/>
<path fill-rule="evenodd" clip-rule="evenodd" d="M109.25 527.527L114.273 549.155C173.566 555.154 209.897 550.819 223.264 536.151C236.631 521.484 251.866 466.659 268.969 371.677H200.402C189.566 449.454 183.508 489.975 182.228 493.24C180.948 496.505 156.622 507.934 109.25 527.527Z" fill="#EA5455"/>
<path fill-rule="evenodd" clip-rule="evenodd" d="M89.1383 533.541C85.6887 532.801 83.1606 532.594 81.5541 532.921C79.6003 533.318 76.8065 534.273 73.1728 535.787C73.5724 538.401 77.1643 561.899 83.9484 606.281C89.4786 607.045 92.1513 605.411 91.9666 601.379C91.7819 597.347 91.6587 593.991 91.597 591.312L99.2513 555.972C99.3986 555.292 99.0401 554.603 98.4506 554.433C98.4405 554.43 98.4304 554.427 98.4202 554.425L93.6694 553.219C91.633 549.866 90.4402 547.047 90.091 544.763C89.8073 542.907 90.0653 540.212 90.8651 536.677L90.8651 536.677C91.172 535.321 90.4675 533.934 89.2916 533.58C89.241 533.565 89.1898 533.552 89.1383 533.541Z" fill="#ADB5B7"/>
<path fill-rule="evenodd" clip-rule="evenodd" d="M765.973 362.148L709.035 528.689L669.125 651.438H646.369L701.228 362.148L765.973 362.148Z" fill="#505E6E"/>
<path fill-rule="evenodd" clip-rule="evenodd" d="M780.042 362.148C780.661 419.292 780.214 496.226 781.656 499.788C782.617 502.163 812.52 529.219 871.363 580.958L859.634 603.005C789.773 553.205 753.057 524.987 749.485 518.353C744.127 508.4 717.212 416.817 703.208 362.148H780.042Z" fill="#505E6E"/>
<path fill-rule="evenodd" clip-rule="evenodd" d="M892.001 595.794L872.19 579.127L856.205 600.185C854.976 616.06 850.221 633.864 841.94 653.596L845.569 656.962L874.494 618.857L882.575 604.139L884.389 605.822L892.001 595.794Z" fill="#34393E"/>
<path fill-rule="evenodd" clip-rule="evenodd" d="M671.236 675L670.052 647.511H645.184C633.392 656.674 617.998 664.092 599.001 669.764V675H644L659.394 672.382V675H671.236Z" fill="#34393E"/>
<path fill-rule="evenodd" clip-rule="evenodd" d="M753.458 191.311C758.915 184.231 762.608 175.554 761.991 165.831C760.213 137.818 724.935 143.981 718.073 158.119C711.211 172.258 712.026 208.122 720.895 210.649C724.432 211.657 731.966 209.188 739.635 204.079L734.822 241.72H763.242L753.458 191.311Z" fill="#D4A181"/>
<path fill-rule="evenodd" clip-rule="evenodd" d="M755.642 197.617C759.209 180.075 769.371 168.117 767.819 160.276C766.785 155.049 764.027 151.799 759.546 150.525C757.229 140.162 749.755 135.754 737.125 137.302C718.179 139.623 706.615 148.32 711.609 167.458C716.199 167.458 721.741 165.623 729.404 168.767C731.835 169.764 733.574 172.858 734.621 178.048H738.084C741.444 171.889 744.758 169.626 748.025 171.258C751.292 172.891 752.034 176.856 750.253 183.154L751.958 197.617H755.642Z" fill="#212529"/>
<path fill-rule="evenodd" clip-rule="evenodd" d="M672.319 333.627L634.545 364.289C624.3 367.345 615.74 371.147 608.867 375.695C607.243 377.33 605.281 380.642 612.015 380.07C618.748 379.497 625.855 379.23 626.784 381.769C627.713 384.308 623.638 387.344 625.516 390.77C626.768 393.054 632.684 387.327 643.263 373.59L680.669 356.444L672.319 333.627ZM817.351 334.685L792.604 334.793C807.884 389.318 816.133 418.248 817.351 421.584C820.091 429.091 814.292 440.523 811.813 446.667C819.889 450.662 819.028 435.867 829.216 441.107C838.515 445.889 845.589 454.554 856.333 447.226C857.654 446.325 859.101 442.933 855.604 440.282C846.891 433.678 834.335 422.12 832.639 418.315C830.325 413.127 825.229 385.251 817.351 334.685Z" fill="#D4A181"/>
<path fill-rule="evenodd" clip-rule="evenodd" d="M747.025 219.902L736.785 217.96C698.792 254.24 683.187 323.937 636.617 360.859L647.826 376.217C728.617 365.16 748.641 280.146 747.025 219.902Z" fill="#037FFF"/>
<path fill-rule="evenodd" clip-rule="evenodd" d="M791.664 362.148C750.606 362.148 720.405 362.148 701.06 362.148C696.92 362.148 697.7 355.54 698.298 352.206C705.205 313.72 732.169 272.235 732.169 217.452L758.303 212.922C779.92 251.352 787.395 298.668 791.664 362.148Z" fill="#DDE3E9"/>
<path fill-rule="evenodd" clip-rule="evenodd" d="M790.935 250.697C794.731 249.491 797.736 246.678 799.952 242.258C809.505 223.206 806.055 212.716 795.846 209.268C785.638 205.82 776.534 212.922 760.27 212.922C759.385 212.922 758.575 212.983 757.839 213.106L749.658 213.622C726.184 301.562 719.71 360.233 730.236 389.638H801.549C805.774 400.528 809.817 409.691 813.678 417.127H833.11C834.938 351.764 820.88 296.288 790.935 250.697Z" fill="#3699FF"/>
<path fill-rule="evenodd" clip-rule="evenodd" d="M786.02 344.474C783.777 365.217 780.132 380.271 775.084 389.638H801.549C796.62 376.934 791.444 361.879 786.02 344.474V344.474Z" fill="black" fill-opacity="0.1"/>
<path d="M391.161 128.846H312.812C312.136 128.846 311.487 128.531 311.008 127.971C310.53 127.41 310.261 126.65 310.261 125.857C310.261 125.064 310.53 124.304 311.008 123.744C311.487 123.183 312.136 122.868 312.812 122.868H391.161C391.839 122.868 392.487 123.183 392.965 123.744C393.444 124.304 393.712 125.064 393.712 125.857C393.712 126.65 393.444 127.41 392.965 127.971C392.487 128.531 391.839 128.846 391.161 128.846Z" fill="#FFC995"/>
<path d="M298.525 237.132C297.967 237.126 297.426 236.904 296.985 236.502C296.544 236.101 296.227 235.54 296.085 234.908C295.941 234.273 295.981 233.605 296.194 232.999C296.408 232.395 296.785 231.889 297.268 231.56L402.948 160.615C403.239 160.41 403.562 160.277 403.899 160.22C404.234 160.164 404.575 160.188 404.905 160.288C405.233 160.388 405.539 160.565 405.808 160.807C406.078 161.048 406.304 161.351 406.472 161.695C406.641 162.041 406.749 162.421 406.791 162.816C406.831 163.211 406.805 163.61 406.712 163.992C406.621 164.374 406.464 164.733 406.253 165.042C406.04 165.354 405.779 165.613 405.481 165.803L299.8 236.727C299.414 236.993 298.973 237.134 298.525 237.132Z" fill="#FFC995"/>
<path d="M391.158 253.999C390.642 254.007 390.136 253.828 389.708 253.49C389.279 253.151 388.95 252.666 388.764 252.103C388.578 251.537 388.543 250.92 388.665 250.331C388.787 249.744 389.059 249.212 389.445 248.811L438.641 196.461C438.885 196.173 439.177 195.946 439.498 195.795C439.818 195.643 440.163 195.571 440.509 195.579C440.855 195.588 441.196 195.679 441.511 195.848C441.824 196.017 442.107 196.258 442.34 196.557C442.573 196.858 442.75 197.21 442.863 197.595C442.976 197.977 443.021 198.382 442.996 198.788C442.97 199.192 442.874 199.586 442.715 199.945C442.555 200.306 442.335 200.624 442.067 200.88L392.871 253.23C392.399 253.723 391.79 253.996 391.158 253.999Z" fill="#FFC995"/>
<path d="M394.64 84.4385C394.179 84.4359 393.725 84.2884 393.328 84.0115L347.266 51.7092C346.706 51.2899 346.309 50.6319 346.158 49.8747C346.005 49.1172 346.112 48.3204 346.453 47.6532C346.796 46.9862 347.344 46.5016 347.987 46.302C348.629 46.1026 349.312 46.2042 349.89 46.5853L395.933 78.9729C396.413 79.3094 396.782 79.8201 396.988 80.4269C397.196 81.0336 397.227 81.7029 397.078 82.3325C396.93 82.9621 396.609 83.5172 396.165 83.9131C395.722 84.3089 395.179 84.5232 394.621 84.5239L394.64 84.4385Z" fill="#FFC995"/>
<path d="M482.5 59.7367C481.824 59.7367 481.175 59.4218 480.696 58.8612C480.219 58.3008 479.949 57.5403 479.949 56.7476V2.98898C479.949 2.19604 480.219 1.43599 480.696 0.875341C481.175 0.314909 481.824 0 482.5 0C483.178 0 483.827 0.314909 484.304 0.875341C484.783 1.43599 485.051 2.19604 485.051 2.98898V56.7476C485.051 57.5403 484.783 58.3008 484.304 58.8612C483.827 59.4218 483.178 59.7367 482.5 59.7367Z" fill="#FFC995"/>
<path d="M440.355 56.3208C439.929 56.3185 439.51 56.1925 439.134 55.954C438.759 55.7155 438.44 55.3722 438.205 54.9542L415.848 13.9839C415.539 13.3204 415.453 12.5435 415.613 11.8097C415.772 11.0761 416.162 10.4405 416.707 10.0312C417.25 9.62197 417.906 9.46975 418.541 9.6051C419.177 9.74025 419.744 10.1532 420.13 10.7603L442.505 51.7093C442.688 52.0393 442.811 52.4082 442.87 52.7949C442.928 53.1815 442.921 53.5778 442.848 53.9612C442.775 54.3445 442.638 54.707 442.445 55.0277C442.252 55.3483 442.006 55.621 441.722 55.8296C441.317 56.147 440.842 56.3178 440.355 56.3208Z" fill="#FFC995"/>
<path d="M652.133 128.846H573.784C573.108 128.846 572.46 128.531 571.98 127.971C571.503 127.41 571.233 126.65 571.233 125.857C571.233 125.064 571.503 124.304 571.98 123.744C572.46 123.183 573.108 122.868 573.784 122.868H652.133C652.811 122.868 653.46 123.183 653.937 123.744C654.416 124.304 654.684 125.064 654.684 125.857C654.684 126.65 654.416 127.41 653.937 127.971C653.46 128.531 652.811 128.846 652.133 128.846Z" fill="#FFC995"/>
<path d="M666.456 237.132C666.015 237.13 665.58 236.991 665.199 236.727L559.519 165.803C559.222 165.613 558.959 165.354 558.748 165.042C558.537 164.733 558.38 164.374 558.287 163.992C558.196 163.61 558.169 163.211 558.211 162.816C558.252 162.421 558.36 162.041 558.528 161.695C558.697 161.351 558.921 161.048 559.191 160.807C559.461 160.565 559.768 160.388 560.096 160.288C560.424 160.188 560.767 160.164 561.102 160.22C561.437 160.277 561.762 160.41 562.052 160.615L667.732 231.56C668.216 231.891 668.594 232.397 668.809 233.005C669.022 233.612 669.058 234.284 668.912 234.918C668.768 235.552 668.45 236.112 668.005 236.511C667.56 236.912 667.017 237.13 666.456 237.132Z" fill="#FFC995"/>
<path d="M573.84 253.999C573.208 254.001 572.597 253.725 572.127 253.23L522.931 200.88C522.664 200.624 522.443 200.306 522.285 199.945C522.124 199.586 522.029 199.192 522.004 198.788C521.978 198.382 522.024 197.977 522.135 197.595C522.248 197.21 522.427 196.858 522.66 196.557C522.891 196.258 523.174 196.017 523.489 195.848C523.804 195.679 524.145 195.588 524.491 195.579C524.837 195.571 525.18 195.643 525.501 195.795C525.823 195.946 526.115 196.173 526.357 196.461L575.553 248.811C575.81 249.073 576.018 249.396 576.163 249.756C576.311 250.115 576.395 250.506 576.409 250.905C576.426 251.304 576.373 251.701 576.253 252.075C576.134 252.449 575.952 252.79 575.717 253.081C575.478 253.382 575.187 253.619 574.864 253.777C574.54 253.937 574.192 254.011 573.84 253.999Z" fill="#FFC995"/>
<path d="M570.432 84.4383C569.991 84.4423 569.558 84.3104 569.173 84.0555C568.791 83.8008 568.47 83.432 568.246 82.9867C567.9 82.3071 567.796 81.4935 567.96 80.7249C568.124 79.9563 568.541 79.2953 569.12 78.8875L615.11 46.4999C615.398 46.2845 615.718 46.1389 616.055 46.0716C616.391 46.0041 616.737 46.0165 617.068 46.1081C617.4 46.1995 617.713 46.3679 617.988 46.6037C618.264 46.8391 618.497 47.1374 618.672 47.4801C618.847 47.8227 618.963 48.2034 619.011 48.599C619.058 48.9948 619.038 49.3977 618.951 49.7841C618.863 50.1703 618.71 50.5324 618.5 50.8484C618.293 51.1644 618.03 51.4281 617.733 51.6236L571.69 84.0115C571.307 84.2726 570.875 84.4193 570.432 84.4383Z" fill="#FFC995"/>
<path d="M524.626 56.3208C524.142 56.3183 523.668 56.1554 523.26 55.8511C522.977 55.6406 522.733 55.3669 522.542 55.0454C522.351 54.7236 522.216 54.3609 522.145 53.9777C522.074 53.5947 522.068 53.1988 522.128 52.813C522.188 52.4273 522.312 52.0594 522.494 51.7306L544.851 10.7603C545.216 10.0921 545.793 9.62112 546.455 9.45096C547.116 9.28081 547.807 9.42534 548.377 9.85277C548.947 10.2804 549.35 10.9559 549.496 11.7305C549.64 12.5053 549.518 13.3159 549.151 13.984L526.776 54.9542C526.547 55.3763 526.228 55.7228 525.853 55.9617C525.475 56.2008 525.055 56.3242 524.626 56.3208Z" fill="#FFC995"/>
<path d="M287.736 60.3286L306.329 49.5936L295.594 31L277.001 41.735L287.736 60.3286Z" fill="#B6F0D0" fill-opacity="0.3"/>
<path d="M789.735 101.329L808.328 90.5936L797.593 72L779 82.735L789.735 101.329Z" fill="#B6F0D0" fill-opacity="0.3"/>
<path d="M641.736 160.329L660.329 149.594L649.594 131L631.001 141.735L641.736 160.329Z" fill="#B6F0D0" fill-opacity="0.3"/>
<path d="M627.736 35.3286L646.329 24.5936L635.594 6L617.001 16.735L627.736 35.3286Z" fill="#FFDDBD" fill-opacity="0.3"/>
<path d="M134.735 211.329L153.328 200.594L142.593 182L124 192.735L134.735 211.329Z" fill="#FFDDBD" fill-opacity="0.3"/>
<path d="M309.735 188.329L328.328 177.594L317.593 159L299 169.735L309.735 188.329Z" fill="#FFDDBD" fill-opacity="0.3"/>
<path d="M881.736 285.329L900.329 274.594L889.594 256L871.001 266.735L881.736 285.329Z" fill="#F7C1C1" fill-opacity="0.3"/>
<path d="M158.736 74.3286L177.329 63.5936L166.594 45L148.001 55.735L158.736 74.3286Z" fill="#F7C1C1" fill-opacity="0.3"/>
<path d="M611.84 103.399L611.395 109.04C611.33 109.807 609.779 128.046 598.342 149.363C588.528 167.645 569.43 191.458 533.372 204.841C530.559 205.891 527.639 206.872 524.611 207.782L521.235 197.772C529.711 195.254 537.876 191.881 545.588 187.714C563.966 177.692 578.256 163.388 588.221 144.982C593.508 135.182 597.276 124.715 599.409 113.903H558.385V103.399H611.84Z" fill="#FF8510"/>
<path opacity="0.1" d="M528.958 204.846C565.009 191.463 584.114 167.657 593.922 149.374C605.359 128.058 606.916 109.83 606.975 109.052L607.42 103.411H612L611.555 109.052C611.496 109.818 609.939 128.058 598.502 149.374C588.688 167.657 569.589 191.463 533.538 204.846C530.725 205.897 527.803 206.879 524.771 207.794L524.326 206.477C525.905 205.946 527.449 205.402 528.958 204.846Z" fill="white"/>
<path d="M456.794 197.772L453.418 207.782C450.387 206.868 447.464 205.885 444.651 204.835C408.6 191.452 389.495 167.645 379.687 149.363C368.25 128.046 366.693 109.819 366.634 109.04L366.189 103.399H419.618V113.903H378.588C380.733 124.717 384.512 135.183 389.809 144.982C399.774 163.388 414.057 177.692 432.435 187.707C440.148 191.879 448.315 195.254 456.794 197.772V197.772Z" fill="#FF8510"/>
<path opacity="0.1" d="M449.041 204.846C412.99 191.463 393.885 167.657 384.078 149.374C372.641 128.058 371.084 109.83 371.025 109.052L370.58 103.411H366L366.445 109.052C366.504 109.818 368.061 128.058 379.498 149.374C389.312 167.657 408.411 191.463 444.461 204.846C447.275 205.897 450.197 206.879 453.229 207.794L453.674 206.477C452.099 205.946 450.555 205.402 449.041 204.846Z" fill="white"/>
<path d="M550.726 294.53V351.17H427.283V294.53L431.209 289.587C471.212 276.179 479.318 241.214 480.934 227.38C481.175 225.469 481.312 223.547 481.346 221.622H496.611C496.645 223.547 496.782 225.469 497.023 227.38C498.665 241.214 506.772 276.192 546.748 289.587L550.726 294.53Z" fill="#FF8510"/>
<path opacity="0.1" d="M550.726 294.53H427.283V301.636H550.726V294.53Z" fill="black"/>
<path opacity="0.1" d="M437.752 289.587C477.754 276.179 485.861 241.214 487.477 227.38C487.718 225.469 487.855 223.547 487.889 221.622H481.346C481.312 223.547 481.175 225.469 480.934 227.38C479.292 241.214 471.186 276.192 431.209 289.587L427.283 294.53V351.17H433.826V294.53L437.752 289.587Z" fill="white"/>
<path opacity="0.1" d="M408.529 103.399H419.6V113.903H409.511C409.114 110.443 408.787 106.942 408.529 103.399Z" fill="black"/>
<path opacity="0.1" d="M456.775 197.772L453.399 207.782C450.367 206.867 447.445 205.885 444.631 204.834C440.003 199.497 435.914 193.763 432.416 187.707C440.129 191.879 448.296 195.254 456.775 197.772Z" fill="black"/>
<path opacity="0.1" d="M521.229 197.772C529.704 195.253 537.869 191.881 545.581 187.713C542.081 193.77 537.992 199.506 533.365 204.847C530.552 205.897 527.632 206.878 524.605 207.788L521.229 197.772Z" fill="black"/>
<path opacity="0.1" d="M569.468 103.399C569.211 106.942 568.884 110.443 568.487 113.903H558.404V103.399H569.468Z" fill="black"/>
<path opacity="0.1" d="M497.049 227.38C491.735 228.352 486.273 228.352 480.96 227.38C481.2 225.469 481.338 223.547 481.372 221.622H496.637C496.671 223.547 496.808 225.469 497.049 227.38V227.38Z" fill="black"/>
<path d="M409.837 86C410.118 163.888 445.449 226.874 489.005 226.874C532.56 226.874 567.885 163.888 568.173 86H409.837Z" fill="#FF8510"/>
<path opacity="0.1" d="M423.904 86H409.837C410.118 163.888 445.449 226.874 489.005 226.874C491.362 226.87 493.714 226.682 496.038 226.311C455.774 219.96 424.172 159.65 423.904 86Z" fill="white"/>
<path d="M530.98 316.212H447.017V336.602H530.98V316.212Z" fill="#FFDDBD"/>
<path opacity="0.1" d="M450.942 318.992H530.98V316.212H447.017V336.602H450.942V318.992Z" fill="white"/>
<path d="M528.03 645.429C527.898 645.033 527.788 644.633 527.669 644.237C528.247 644.182 528.597 643.196 527.954 642.838C527.697 642.694 527.438 642.542 527.179 642.392C524.823 632.519 526.771 622.161 532.456 614.085C537.303 607.202 544.643 600.976 545.259 591.422C545.838 582.459 540.381 574.459 538.985 565.848C538.135 560.598 538.146 554.749 540.672 550.074C542.569 546.561 546.912 544.326 547.806 540.111C549.474 532.233 539.948 534.018 536.631 535.827C530.229 539.314 525.332 546.269 523.898 554.291C522.458 562.341 524.477 569.773 528.421 576.374C530.218 579.378 531.142 582.019 529.569 585.528C528.461 588 526.797 590.224 525.16 592.249C521.93 596.242 518.094 599.466 513.856 601.878C510.101 604.016 506.032 605.757 504.434 610.632C503.307 614.061 503.651 617.891 504.844 621.224C508.39 631.155 517.901 638.679 526.084 643.452C526.292 644.261 526.51 645.071 526.776 645.864C527.073 646.768 528.331 646.342 528.03 645.429Z" fill="#9CCDFF"/>
<path d="M530.949 582.798C530.474 574.502 527.483 565.998 521.026 561.654C516.533 558.631 512.32 556.917 509.94 551.117C507.928 546.209 507.491 540.589 507.137 535.251C506.604 527.252 505.967 518.632 501.351 512.165C496.959 506.013 489.683 505.345 484.275 510.225C476.856 516.927 476.929 528.643 478.563 538.369C480.303 548.732 483.772 558.718 488.628 567.66C491.349 572.672 494.514 577.379 498.065 581.644C501.902 586.249 506.68 590.005 509.917 595.239C516.656 606.134 513.702 620.381 510.668 632.314C510.399 631.639 509.357 632.027 509.461 632.901C509.658 634.577 509.853 636.248 510.051 637.926C510.1 638.356 510.539 638.526 510.851 638.467C520.073 636.743 522.75 625.597 524.788 616.668C527.309 605.613 531.618 594.462 530.949 582.798Z" fill="#CFE7FF"/>
<path d="M507.521 605.392C503.707 599.607 498.818 595.644 493.625 591.653C487.512 586.951 483.489 581.16 479.285 574.335C476.85 570.389 473.172 563.786 468.127 565.515C463.633 567.054 461.954 573.731 462.001 578.506C462.143 592.465 472.962 601.481 482.734 607.02C486.13 608.945 489.605 610.69 492.977 612.667C496.811 614.914 501.179 617.305 503.265 621.881C504.768 625.177 505.566 628.77 507.33 631.934C509.217 635.316 511.687 638.104 514.525 640.41C514.498 640.675 514.481 640.939 514.451 641.205C514.338 642.17 515.635 642.395 515.75 641.425C517.251 628.702 514.268 615.625 507.521 605.392Z" fill="#CFE7FF"/>
<path d="M535.391 631.394L528.557 675.865H505.095L498.259 631.394H535.391Z" fill="#EDEDED" stroke="#E6E6E6"/>
<defs>
<linearGradient id="paint0_linear" x1="763.79" y1="237.196" x2="328.649" y2="692.863" gradientUnits="userSpaceOnUse">
<stop stop-color="#EBF5FF" stop-opacity="0.66"/>
<stop offset="1" stop-color="#E8F1F9"/>
</linearGradient>
</defs>
</svg>
