<svg width="1167" height="747" viewBox="0 0 1167 747" fill="none" xmlns="http://www.w3.org/2000/svg">
<path d="M958.5 747C1046.04 747 1117 730.658 1117 710.5C1117 690.342 1046.04 674 958.5 674C870.963 674 800 690.342 800 710.5C800 730.658 870.963 747 958.5 747Z" fill="#F5F5F5"/>
<path d="M146.5 718C227.41 718 293 701.658 293 681.5C293 661.342 227.41 645 146.5 645C65.5903 645 0 661.342 0 681.5C0 701.658 65.5903 718 146.5 718Z" fill="#F5F5F5"/>
<path d="M136.5 138C172.675 138 202 108.675 202 72.5C202 36.3253 172.675 7 136.5 7C100.325 7 71 36.3253 71 72.5C71 108.675 100.325 138 136.5 138Z" fill="url(#paint0_linear)"/>
<path d="M136.5 136.914C172.075 136.914 200.915 108.075 200.915 72.5C200.915 36.9249 172.075 8.0856 136.5 8.0856C100.925 8.0856 72.0859 36.9249 72.0859 72.5C72.0859 108.075 100.925 136.914 136.5 136.914Z" fill="#0E0850" fill-opacity="0.83"/>
<path d="M136.5 123.706C164.78 123.706 187.706 100.78 187.706 72.5C187.706 44.2198 164.78 21.2942 136.5 21.2942C108.22 21.2942 85.2939 44.2198 85.2939 72.5C85.2939 100.78 108.22 123.706 136.5 123.706Z" fill="#F5F5F5"/>
<path opacity="0.3" d="M137.948 30.3412H135.053V75.576H137.948V30.3412Z" fill="#535461"/>
<g opacity="0.1">
<path opacity="0.1" d="M180.468 71.4144H139.576V75.0332H180.468V71.4144Z" fill="black"/>
<path opacity="0.1" d="M110.706 57.8754L109.027 61.0812L134.757 74.5553L136.436 71.3495L110.706 57.8754Z" fill="black"/>
<path opacity="0.1" d="M136.5 78.6519C139.498 78.6519 141.929 76.2216 141.929 73.2237C141.929 70.2258 139.498 67.7956 136.5 67.7956C133.503 67.7956 131.072 70.2258 131.072 73.2237C131.072 76.2216 133.503 78.6519 136.5 78.6519Z" fill="black"/>
</g>
<path d="M180.468 70.6906H139.576V74.3094H180.468V70.6906Z" fill="#505E6E"/>
<path d="M136.448 70.6299L110.718 57.1558L109.039 60.3616L134.769 73.8357L136.448 70.6299Z" fill="#505E6E"/>
<path d="M136.499 77.9282C139.497 77.9282 141.928 75.4979 141.928 72.5C141.928 69.5021 139.497 67.0718 136.499 67.0718C133.502 67.0718 131.071 69.5021 131.071 72.5C131.071 75.4979 133.502 77.9282 136.499 77.9282Z" fill="#505E6E"/>
<path opacity="0.1" d="M10.1354 324.653H115.111V457.451H17.809C17.5577 458.818 17.3065 460.185 17.0325 461.552H115.111V568.623C114.947 568.578 114.786 568.521 114.631 568.454C111.845 567.394 109.093 566.335 106.375 565.222L104.605 564.47C101.819 563.262 99.067 561.98 96.3492 560.623C95.39 560.157 94.4308 559.67 93.483 559.172C78.1568 551.233 64.2284 541.167 52.1803 529.323C51.8263 529.005 51.4952 528.666 51.164 528.348C49.4968 526.664 47.8411 524.947 46.2538 523.209L44.4839 521.249C42.5997 519.13 40.7841 516.915 39.0256 514.69C38.7629 514.362 38.5117 514.023 38.2491 513.705C31.0433 504.457 25.0697 494.435 20.4582 483.856C20.3097 483.538 20.1727 483.199 20.0471 482.881C18.6083 479.519 17.3256 476.104 16.1989 472.635C15.7307 471.184 15.2625 469.721 14.8743 468.248C14.7258 467.814 14.6116 467.369 14.486 466.945C8.6623 445.679 8 423.576 8 401.59C8 399.026 8 396.465 8 393.908C8 385.014 8.09134 376.096 8.27405 367.153C8.33114 364.843 8.37682 362.533 8.43391 360.213C8.58236 354.321 8.77649 348.42 9.05055 342.528C9.11907 340.896 9.19899 339.254 9.29034 337.633C9.29034 336.69 9.38169 335.747 9.45021 334.814C9.66717 331.424 9.88414 328.044 10.1354 324.653Z" fill="#3699FF"/>
<path opacity="0.1" d="M115.11 176.808H57.5234C66.8859 163.21 77.1166 150.143 88.1608 137.678C96.7136 127.93 105.712 118.415 115.11 109.27V176.808Z" fill="#3699FF"/>
<path opacity="0.1" d="M115.11 180.909V320.552H10.4199C10.4199 320.15 10.4884 319.726 10.5341 319.323C10.6255 318.264 10.7168 317.13 10.8196 316.028C10.9224 314.746 11.0594 313.453 11.185 312.15C11.3106 310.847 11.4591 309.353 11.6189 307.964C11.7788 306.576 11.9272 305.167 12.0985 303.726C12.2698 302.285 12.4297 300.939 12.6124 299.562C12.7951 298.184 12.9664 296.775 13.1605 295.398C13.3204 294.243 13.4802 293.098 13.6515 291.944C13.8875 290.319 14.1387 288.698 14.4052 287.08C14.4052 286.836 14.4851 286.593 14.5194 286.359C16.4064 274.555 18.9795 262.855 22.2272 251.308C25.6228 239.19 29.962 227.316 35.2107 215.78C40.7814 203.711 47.3081 192.041 54.7373 180.867L115.11 180.909Z" fill="#3699FF"/>
<path opacity="0.1" d="M140.187 324.653V457.451H364.411V324.653H140.187ZM140.187 461.552V575.648C141.466 575.892 142.733 576.136 144.001 576.337C145.714 576.644 147.427 576.92 149.151 577.164C149.482 577.164 149.825 577.259 150.167 577.291C150.852 577.397 151.549 577.481 152.234 577.566C153.958 577.789 155.66 577.969 157.43 578.117L159.896 578.319L161.895 578.456C162.979 578.53 164.053 578.594 165.126 578.626C165.788 578.626 166.451 578.626 167.124 578.7H168.7H170.653C171.544 578.7 172.434 578.7 173.314 578.7H174.455C175.346 578.7 176.237 578.7 177.116 578.626C177.733 578.626 178.349 578.626 178.966 578.552C179.141 578.562 179.316 578.562 179.491 578.552C180.005 578.552 180.519 578.552 181.021 578.488H181.375L184.801 578.234C185.943 578.138 187.085 578.022 188.227 577.905L190.579 577.64C200.176 576.394 209.666 574.521 218.978 572.035C239.898 566.621 260.315 559.045 281.269 553.503C308.458 546.287 338.33 542.801 364.411 551.479V461.552H140.187ZM364.411 176.809V0.0161566C339.862 -0.234351 315.379 2.42916 291.558 7.94188C234.771 21.1761 183.785 49.891 140.164 86.5634V176.809H151.412V180.909H140.164V320.552H364.411V180.909H197.693V176.809H364.411ZM652.503 117.09C638.457 116.624 624.492 112.502 611.851 106.123C587.7 93.9381 568.367 75.1092 546.842 59.226C502.068 26.135 446.503 6.16177 389.533 1.21349V176.809H709.621L710.409 176.024L652.503 117.09ZM681.667 112.248L712.59 143.739V104.004C702.21 105.191 693.143 108.052 681.69 112.248H681.667ZM712.59 603.897V461.552H646.679C646.508 460.948 646.325 460.333 646.12 459.719C646.314 460.333 646.485 460.948 646.668 461.552H389.533V564.501C391.977 566.186 394.386 567.956 396.773 569.746C399.354 571.696 401.9 573.688 404.458 575.68L407.027 577.651C408.261 578.605 409.505 579.537 410.75 580.48C413.239 582.345 415.748 584.189 418.275 586.011C419.531 586.933 420.81 587.834 422.078 588.734C442.283 603.063 463.595 615.997 485.842 627.43C490.828 630.002 495.86 632.499 500.938 634.922C504.318 636.532 507.717 638.115 511.135 639.669C516.266 641.993 521.435 644.243 526.642 646.418C574.723 666.444 625.566 680.183 677.716 687.244C689.295 688.827 700.92 690.073 712.59 690.985V603.897H713.618H712.59ZM389.533 180.909V320.552H712.613V180.909H389.533ZM389.533 324.653V457.451H712.613V324.653H389.533ZM737.689 103.813V148.231L777.153 108.041C764.082 106.063 750.927 104.654 737.689 103.813ZM737.689 324.653V457.451H1051.93V324.653H737.689ZM1050.82 614.45L1051.96 461.552H737.689V692.542C757.93 693.328 778.201 693.102 798.415 691.864V691.864H798.769C808.407 691.292 818.018 690.472 827.603 689.406H827.82C878.852 683.896 928.753 671.539 975.959 652.723L1050.82 614.45ZM1112.54 346.565C1111.35 343.98 1110.13 341.416 1108.88 338.873C1106.59 334.115 1104.07 329.41 1101.52 324.748H1077.01V457.451H1138.99C1138.94 419.889 1128.69 381.436 1112.55 346.47L1112.54 346.565ZM1077.01 461.647V593.079C1094.47 577.556 1109.22 559.786 1119.84 539.474C1132.62 515.008 1138.44 488.529 1138.94 461.552L1077.01 461.647ZM1077.01 286.052V320.648H1099.23C1092.5 308.723 1085.09 297.142 1077.02 285.957L1077.01 286.052ZM863.904 129.869C862.271 129.286 860.626 128.703 858.982 128.142C841.638 122.182 823.912 117.228 805.906 113.307L745.511 174.764L744.369 175.94L745.146 176.724H960.052C930.111 157.634 897.836 141.906 863.904 129.869V129.869ZM966.378 180.909H742.097L737.689 184.66V320.552H776.32H1051.91V254.699C1026.99 226.74 998.24 201.932 966.378 180.909V180.909Z" fill="#3699FF"/>
<path opacity="0.1" d="M115.11 251.351V320.552H10.4199C10.4199 320.15 10.4884 319.726 10.5341 319.323C10.6255 318.264 10.7168 317.13 10.8196 316.028C10.9224 314.746 11.0594 313.453 11.185 312.15C11.3106 310.847 11.4591 309.352 11.6189 307.964C11.7788 306.576 11.9272 305.167 12.0985 303.726C12.2698 302.285 12.4297 300.939 12.6124 299.562C12.7951 298.184 12.9664 296.775 13.1605 295.398C13.3204 294.243 13.4802 293.098 13.6515 291.943C13.8875 290.319 14.1387 288.698 14.4052 287.08C14.4052 286.836 14.4851 286.593 14.5194 286.359C16.4064 274.555 18.9795 262.855 22.2272 251.308L115.11 251.351Z" fill="#3699FF"/>
<path opacity="0.1" d="M10.1354 324.653H115.111V457.451H17.809C17.5577 458.818 17.3065 460.185 17.0325 461.552H115.111V568.623C114.947 568.578 114.786 568.521 114.631 568.454C111.845 567.394 109.093 566.335 106.375 565.222L104.605 564.47C101.819 563.262 99.067 561.98 96.3492 560.623C95.39 560.157 94.4308 559.67 93.483 559.172C78.1568 551.233 64.2284 541.167 52.1803 529.323C51.8263 529.005 51.4952 528.666 51.164 528.348C49.4968 526.664 47.8411 524.947 46.2538 523.209L44.4839 521.249C42.5997 519.13 40.7841 516.915 39.0256 514.69C38.7629 514.362 38.5117 514.023 38.2491 513.705C31.0433 504.457 25.0697 494.435 20.4582 483.856C20.3097 483.538 20.1727 483.199 20.0471 482.881C18.6083 479.519 17.3256 476.104 16.1989 472.635C15.7307 471.184 15.2625 469.721 14.8743 468.248C14.7258 467.814 14.6116 467.369 14.486 466.945C8.6623 445.679 8 423.576 8 401.59C8 399.026 8 396.465 8 393.908C8 385.014 8.09134 376.096 8.27405 367.153C8.33114 364.843 8.37682 362.533 8.43391 360.213C8.58236 354.321 8.77649 348.42 9.05055 342.528C9.11907 340.896 9.19899 339.254 9.29034 337.633C9.29034 336.69 9.38169 335.747 9.45021 334.814C9.66717 331.424 9.88414 328.044 10.1354 324.653Z" fill="#3699FF"/>
<path opacity="0.1" d="M219.127 200.904V320.552H140.188V200.904H151.435V160.396H197.648V200.904H219.127Z" fill="#3699FF"/>
<path opacity="0.1" d="M219.138 324.653H140.198V457.451H219.138V324.653Z" fill="#3699FF"/>
<path opacity="0.1" d="M140.188 461.552H219.127V571.972C209.816 574.46 200.326 576.33 190.728 577.566C189.94 577.672 189.164 577.757 188.376 577.842C187.234 577.958 186.092 578.075 184.95 578.17L181.524 578.424H181.159C180.668 578.424 180.154 578.477 179.64 578.488C179.465 578.498 179.29 578.498 179.115 578.488C178.487 578.488 177.87 578.552 177.254 578.562C176.374 578.562 175.495 578.615 174.593 578.636H173.451C172.572 578.636 171.693 578.636 170.791 578.636H168.849C168.313 578.636 167.787 578.636 167.262 578.636C166.737 578.636 165.937 578.636 165.264 578.562C164.19 578.562 163.117 578.467 162.032 578.393L160.045 578.255L157.567 578.054C155.832 577.905 154.142 577.714 152.372 577.503C151.698 577.418 150.99 577.333 150.305 577.227C149.962 577.227 149.62 577.142 149.3 577.1C147.576 576.856 145.874 576.581 144.15 576.273C142.871 576.072 141.603 575.828 140.325 575.585L140.188 461.552Z" fill="#3699FF"/>
<path opacity="0.1" d="M712.625 186.779H647.525V320.552H712.625V186.779Z" fill="#3699FF"/>
<path opacity="0.1" d="M712.625 324.653V457.451H389.522V400.18H561.619V433.96H647.525V324.653H712.625Z" fill="#3699FF"/>
<path opacity="0.1" d="M713.652 603.939H712.625V691.048C700.954 690.137 689.33 688.89 677.751 687.308C625.585 680.236 574.73 666.478 526.643 646.429C512.757 640.622 499.157 634.293 485.842 627.441C463.598 616.005 442.286 603.071 422.078 588.745C417.001 585.135 411.988 581.444 407.039 577.672C403.614 575.044 400.188 572.374 396.762 569.746C394.387 567.956 391.978 566.186 389.522 564.448V461.552H646.668C646.486 460.948 646.314 460.333 646.132 459.719C646.326 460.333 646.508 460.948 646.68 461.552H712.625V603.876L713.652 603.939Z" fill="#3699FF"/>
<path opacity="0.1" d="M882.38 176.809H839.981V164.528H858.983V128.142C860.627 128.703 862.271 129.286 863.904 129.869V164.528H882.38V176.809Z" fill="#3699FF"/>
<path opacity="0.1" d="M984.591 320.552H776.342H776.41H776.319H737.688V186.779H748.639V285.66H798.655V227.139H839.98V180.909H882.379V227.139H923.694V285.66H984.591V320.552Z" fill="#3699FF"/>
<path opacity="0.1" d="M737.688 324.653V457.451H984.591V324.653H737.688ZM1051.59 613.794L1051.93 508.682H984.557V461.552H737.688V692.542C757.929 693.328 778.201 693.102 798.415 691.864V691.864H798.769C808.407 691.292 818.018 690.472 827.602 689.406H827.819C878.852 683.896 928.752 671.539 975.958 652.723" fill="#3699FF"/>
<path opacity="0.1" d="M1081.37 461.552H1138.97C1138.46 488.529 1132.63 515.008 1119.85 539.474C1109.24 559.786 1094.48 577.556 1077.03 593.079V508.629H1081.37V461.552Z" fill="#3699FF"/>
<path opacity="0.1" d="M1139 457.451H1081.37V346.47H1112.55C1128.69 381.436 1138.94 419.889 1139 457.451Z" fill="#3699FF"/>
<path opacity="0.1" d="M712.625 223.96H677.751V265.899H712.625V223.96Z" fill="#3699FF"/>
<path opacity="0.1" d="M712.625 310.9H677.751V320.552H712.625V310.9Z" fill="#3699FF"/>
<path opacity="0.1" d="M712.625 324.653H677.751V352.827H712.625V324.653Z" fill="#3699FF"/>
<path opacity="0.1" d="M712.625 397.828H677.751V439.767H712.625V397.828Z" fill="#3699FF"/>
<path opacity="0.1" d="M712.625 484.767H677.751V526.706H712.625V484.767Z" fill="#3699FF"/>
<path opacity="0.1" d="M712.625 603.876L713.653 603.939H712.625V613.677H677.751V571.696H712.625V603.876Z" fill="#3699FF"/>
<path opacity="0.1" d="M712.625 658.614V691.006C700.954 690.094 689.33 688.848 677.751 687.265V658.656L712.625 658.614Z" fill="#3699FF"/>
<path opacity="0.1" d="M538.975 454.368H389.522V457.451H538.975V454.368Z" fill="#3699FF"/>
<path opacity="0.1" d="M538.975 461.552H389.522V473.356H538.975V461.552Z" fill="#3699FF"/>
<path opacity="0.1" d="M538.975 512.062H389.522V531.05H538.975V512.062Z" fill="#3699FF"/>
<path opacity="0.1" d="M538.974 569.757V588.745H422.077C416.999 585.142 411.986 581.448 407.038 577.661C403.612 575.044 400.186 572.364 396.761 569.757H538.974Z" fill="#3699FF"/>
<path opacity="0.1" d="M538.974 627.441V646.439H526.641C512.755 640.633 499.155 634.3 485.841 627.441H538.974Z" fill="#3699FF"/>
<path opacity="0.1" d="M827.843 337.527H798.428V364.822H827.843V337.527Z" fill="#3699FF"/>
<path opacity="0.1" d="M190.808 210.323H161.393V237.618H190.808V210.323Z" fill="#3699FF"/>
<path opacity="0.1" d="M190.808 273.729H161.393V301.024H190.808V273.729Z" fill="#3699FF"/>
<path opacity="0.1" d="M190.808 337.146H161.393V364.441H190.808V337.146Z" fill="#3699FF"/>
<path opacity="0.1" d="M190.808 400.562H161.393V427.857H190.808V400.562Z" fill="#3699FF"/>
<path opacity="0.1" d="M190.808 463.978H161.393V491.273H190.808V463.978Z" fill="#3699FF"/>
<path opacity="0.1" d="M190.808 527.395H161.393V554.69H190.808V527.395Z" fill="#3699FF"/>
<path opacity="0.1" d="M940.16 337.527H910.744V364.822H940.16V337.527Z" fill="#3699FF"/>
<path opacity="0.1" d="M827.843 404.864H798.428V432.159H827.843V404.864Z" fill="#3699FF"/>
<path opacity="0.1" d="M940.16 404.864H910.744V432.159H940.16V404.864Z" fill="#3699FF"/>
<path opacity="0.1" d="M827.843 472.201H798.428V499.496H827.843V472.201Z" fill="#3699FF"/>
<path opacity="0.1" d="M940.16 472.201H910.744V499.496H940.16V472.201Z" fill="#3699FF"/>
<path opacity="0.1" d="M827.843 539.538H798.428V566.833H827.843V539.538Z" fill="#3699FF"/>
<path opacity="0.1" d="M940.16 539.538H910.744V566.833H940.16V539.538Z" fill="#3699FF"/>
<path opacity="0.1" d="M827.843 606.874H798.428V634.169H827.843V606.874Z" fill="#3699FF"/>
<path opacity="0.1" d="M940.16 606.874H910.744V634.169H940.16V606.874Z" fill="#3699FF"/>
<path opacity="0.1" d="M798.428 691.811V674.211H827.843V689.31L798.428 691.811Z" fill="#3699FF"/>
<path opacity="0.1" d="M14.4297 286.381V301.999H115.112V286.381H14.4297ZM24.4556 301.024H16.1996V287.44H24.4556V301.024ZM34.4816 301.024H26.2256V287.44H34.4816V301.024ZM44.4847 301.024H36.2287V287.44H44.4847V301.024ZM54.5106 301.024H46.2546V287.44H54.5106V301.024ZM64.5251 301.024H56.2691V287.44H64.5251V301.024ZM74.551 301.024H66.295V287.44H74.551V301.024ZM84.577 301.024H76.321V287.44H84.577V301.024ZM94.5915 301.024H86.3355V287.44H94.5915V301.024ZM104.606 301.024H96.35V287.44H104.606V301.024ZM114.62 301.024H106.342V287.44H114.598L114.62 301.024Z" fill="#3699FF"/>
<path opacity="0.1" d="M14.4297 331.869V347.487H115.112V331.869H14.4297ZM24.4556 346.502H16.1996V332.854H24.4556V346.502ZM34.4816 346.502H26.2256V332.854H34.4816V346.502ZM44.4847 346.502H36.2287V332.854H44.4847V346.502ZM54.5106 346.502H46.2546V332.854H54.5106V346.502ZM64.5251 346.502H56.2691V332.854H64.5251V346.502ZM74.551 346.502H66.295V332.854H74.551V346.502ZM84.577 346.502H76.321V332.854H84.577V346.502ZM94.5915 346.502H86.3355V332.854H94.5915V346.502ZM104.606 346.502H96.35V332.854H104.606V346.502ZM114.62 346.502H106.342V332.854H114.598L114.62 346.502Z" fill="#3699FF"/>
<path opacity="0.1" d="M14.4297 377.336V392.943H115.112V377.336H14.4297ZM24.4556 391.958H16.1996V378.311H24.4556V391.958ZM34.4816 391.958H26.2256V378.311H34.4816V391.958ZM44.4847 391.958H36.2287V378.311H44.4847V391.958ZM54.5106 391.958H46.2546V378.311H54.5106V391.958ZM64.5251 391.958H56.2691V378.311H64.5251V391.958ZM74.551 391.958H66.295V378.311H74.551V391.958ZM84.577 391.958H76.321V378.311H84.577V391.958ZM94.5915 391.958H86.3355V378.311H94.5915V391.958ZM104.606 391.958H96.35V378.311H104.606V391.958ZM114.62 391.958H106.342V378.311H114.598L114.62 391.958Z" fill="#3699FF"/>
<path opacity="0.1" d="M14.4297 422.792V438.4H115.112V422.792H14.4297ZM24.4556 437.425H16.1996V423.767H24.4556V437.425ZM34.4816 437.425H26.2256V423.767H34.4816V437.425ZM44.4847 437.425H36.2287V423.767H44.4847V437.425ZM54.5106 437.425H46.2546V423.767H54.5106V437.425ZM64.5251 437.425H56.2691V423.767H64.5251V437.425ZM74.551 437.425H66.295V423.767H74.551V437.425ZM84.577 437.425H76.321V423.767H84.577V437.425ZM94.5915 437.425H86.3355V423.767H94.5915V437.425ZM104.606 437.425H96.35V423.767H104.606V437.425ZM114.62 437.425H106.342V423.767H114.598L114.62 437.425Z" fill="#3699FF"/>
<path opacity="0.1" d="M14.8633 468.248C15.2629 469.721 15.7197 471.183 16.1993 472.635V469.234H24.4553V482.881H20.0475C20.1731 483.199 20.3102 483.538 20.4472 483.856H115.111V468.248H14.8633ZM34.4812 482.881H26.2252V469.234H34.4812V482.881ZM44.4843 482.881H36.2283V469.234H44.4843V482.881ZM54.5102 482.881H46.2543V469.234H54.5102V482.881ZM64.5248 482.881H56.2688V469.234H64.5248V482.881ZM74.5507 482.881H66.2947V469.234H74.5507V482.881ZM84.5766 482.881H76.3206V469.234H84.5766V482.881ZM94.5911 482.881H86.3351V469.234H94.5911V482.881ZM104.606 482.881H96.3497V469.234H104.606V482.881ZM114.62 482.881H106.341V469.234H114.597L114.62 482.881Z" fill="#3699FF"/>
<path opacity="0.1" d="M38.2373 513.715C38.4999 514.023 38.7512 514.362 39.0138 514.69H44.4835V521.249L46.2535 523.209V514.733H54.5095V528.391H51.1637C51.4948 528.709 51.8146 529.048 52.18 529.365H115.11V513.715H38.2373ZM64.5011 528.348H56.2452V514.69H64.5011V528.348ZM74.5271 528.348H66.2711V514.69H74.5271V528.348ZM84.553 528.348H76.297V514.69H84.553V528.348ZM94.5675 528.348H86.3115V514.69H94.5675V528.348ZM104.582 528.348H96.326V514.69H104.582V528.348ZM114.597 528.348H106.341V514.69H114.597V528.348Z" fill="#3699FF"/>
<path opacity="0.1" d="M93.4717 559.172C94.4195 559.67 95.3787 560.157 96.3493 560.623V560.147H104.605V564.47L106.364 565.222V560.147H114.62V568.454C114.779 568.521 114.943 568.578 115.111 568.623V559.172H93.4717Z" fill="#3699FF"/>
<path opacity="0.1" d="M712.613 603.876H713.64H712.613ZM646.119 459.772C646.314 460.386 646.485 461.001 646.667 461.605C646.462 460.948 646.325 460.333 646.119 459.719V459.772ZM151.435 176.809V180.909H197.693V176.809H151.435ZM712.613 603.823H713.64H712.613ZM646.119 459.719C646.314 460.333 646.485 460.948 646.667 461.552C646.462 460.948 646.325 460.333 646.119 459.719V459.719ZM712.613 603.876H713.64H712.613ZM646.119 459.772C646.314 460.386 646.485 461.001 646.667 461.605C646.462 460.948 646.325 460.333 646.119 459.719V459.772Z" fill="#3699FF"/>
<path d="M329.698 479.186L327.997 491.282L323.506 483.451L316.898 471.927L312.257 463.833L314.808 457.248L318.626 462.873L320.796 466.074L324.534 471.584L324.986 472.247L329.698 479.186Z" fill="#3699FF"/>
<path d="M738.54 582.749C737.831 588.122 735.732 587.425 733.818 585.424C731.577 582.996 730.136 579.559 729.788 575.81L713.277 418.322L712.675 412.606L711.966 405.804L711.364 400.169L710.168 388.737L709.415 381.546L717.91 377.716L718.964 388.005L721.559 413.155L722.135 418.768L722.755 424.747L722.87 425.89L723.472 431.606L723.65 433.367L738.548 577.742C738.732 579.403 738.729 581.089 738.54 582.749V582.749Z" fill="#3699FF"/>
<path opacity="0.1" d="M755.759 452.31L749.568 448.64L747.982 440.649L747.646 438.992L753.633 442.433L755.759 452.31Z" fill="black"/>
<path d="M798.63 634.673C798.205 639.417 796.221 639.989 794.202 639.246C792.805 638.679 791.546 637.654 790.548 636.271C789.549 634.889 788.846 633.196 788.506 631.358L752.463 450.344L750.523 440.649L739.699 386.222L738.317 379.362L745.554 368.376L748.991 385.467L798.312 629.86C798.647 631.425 798.756 633.057 798.63 634.673V634.673Z" fill="#3699FF"/>
<path opacity="0.1" d="M723.471 431.492L720.318 427.434L718.856 425.536L713.276 418.323L712.682 412.618L711.965 405.816L719.007 414.722L722.134 418.688L722.754 424.667L722.869 425.788L723.471 431.492Z" fill="black"/>
<path d="M742.146 439.14H733.217L732.925 438.763L722.871 425.788L721.41 423.89L712.685 412.618L695.164 390.005L691.559 385.353L697.502 382.62L702.817 389.354L711.365 400.18L721.56 413.075L737.354 433.058L742.146 439.14Z" fill="#3699FF"/>
<path d="M325.871 411.143L323.905 421.558L316.633 459.946L314.985 468.612L284.319 630.523C283.897 632.882 283.061 635.084 281.874 636.959C278.925 641.532 277.074 639.36 276.028 636.594C275.11 634.069 274.906 631.209 275.453 628.511L314.808 422.312L316.934 411.143H325.871Z" fill="#3699FF"/>
<path d="M371.374 410.606L365.705 417.98L343.197 447.291L341.638 449.326L338.511 453.396L329.813 464.702L328.272 466.714L325.18 470.727L324.534 471.584L322.895 473.711L319.068 468.223L320.796 466.074L326.784 458.552L329.848 454.711L331.381 452.801L340.141 441.792L343.241 437.906L344.792 435.962L358.636 418.586L364.996 410.606H371.374Z" fill="#3699FF"/>
<path opacity="0.1" d="M344.791 435.962L344.517 437.906L343.197 447.291L341.638 449.326L329.812 464.702L331.123 454.711L331.38 452.801L343.241 437.906L344.791 435.962Z" fill="black"/>
<path opacity="0.1" d="M324.985 472.247L329.697 479.186L327.997 491.281L323.506 483.451L324.569 475.402L324.985 472.247Z" fill="black"/>
<path opacity="0.1" d="M340.141 441.792L339.086 449.326L338.511 453.396L329.812 464.702L328.271 466.714L325.18 470.727L325.72 466.714L326.783 458.552L329.848 454.711L331.38 452.801L340.141 441.792Z" fill="black"/>
<path d="M347.554 407.314L345.782 419.672L343.223 437.906L341.619 449.338L306.294 699.813C303.061 710.101 300.705 707.815 299.305 704.122C298.178 701.059 297.825 697.616 298.296 694.279L325.569 487.086L327.101 475.414L328.244 466.726L329.829 454.722L334.258 420.655L335.144 413.91L347.554 407.314Z" fill="#3699FF"/>
<path d="M237.85 320.602L259.108 374.927L833.15 331.028L747.255 290.421L237.85 320.602Z" fill="#69B3FF"/>
<path d="M683.26 320.737L605.827 320.463L598.133 307.363L625.339 305.93L620.597 291.567L674.408 286.504L622.88 273.502L627.432 272.717L710.288 282.529L705.725 304.943L699.203 317.261L683.26 320.737Z" fill="#6C63FF"/>
<path d="M727.439 310.3C727.439 310.3 722.31 314.844 726.382 321.713L685.435 334.604L681.505 335.202L679.695 329.454L680.906 322.201V318.236L727.439 310.3Z" fill="#D5D6DB"/>
<path d="M598.133 307.364L654.808 299.864L729.904 308.548L683.26 320.738L598.133 307.364Z" fill="#6C63FF"/>
<path d="M598.133 307.364L654.808 299.864L729.904 308.548L683.26 320.738L598.133 307.364Z" fill="#7367F0"/>
<path d="M598.134 307.362C598.134 307.362 592.833 314.652 598.941 321.385L682.985 334.604C682.985 334.604 677.768 328.797 683.254 320.738L598.134 307.362Z" fill="#6C63FF"/>
<path opacity="0.1" d="M598.134 307.362C598.134 307.362 592.833 314.652 598.941 321.385L682.985 334.604C682.985 334.604 677.768 328.797 683.254 320.738L598.134 307.362Z" fill="black"/>
<path opacity="0.1" d="M600.637 309.889C600.637 309.889 597.608 315.223 600.637 318.675Z" fill="black"/>
<path d="M682.985 334.604L729.905 320.071C729.905 320.071 732.529 320.481 730.833 321.877C729.136 323.273 683.89 336 683.89 336L598.941 321.385L682.985 334.604Z" fill="#6C63FF"/>
<path opacity="0.1" d="M682.985 334.604L729.905 320.071C729.905 320.071 732.529 320.481 730.833 321.877C729.136 323.273 683.89 336 683.89 336L598.941 321.385L682.985 334.604Z" fill="black"/>
<path opacity="0.1" d="M679.14 322.206C679.14 322.206 674.615 326.147 679.14 332.059Z" fill="black"/>
<path opacity="0.1" d="M701.045 322.139L680.75 327.054L680.822 327.21L701.116 322.295L701.045 322.139Z" fill="black"/>
<path opacity="0.1" d="M705.11 321.65L680.744 328.376L680.825 328.529L705.191 321.803L705.11 321.65Z" fill="black"/>
<path opacity="0.1" d="M708.844 321.626L680.881 329.935L680.967 330.087L708.93 321.778L708.844 321.626Z" fill="black"/>
<path opacity="0.1" d="M712.902 320.915L681.205 331.308L681.298 331.458L712.995 321.064L712.902 320.915Z" fill="black"/>
<path opacity="0.1" d="M716.309 320.918L681.453 331.978L681.544 332.128L716.4 321.069L716.309 320.918Z" fill="black"/>
<path opacity="0.1" d="M723.771 319.999L681.98 333.101L682.07 333.252L723.861 320.149L723.771 319.999Z" fill="black"/>
<path opacity="0.3" d="M619.188 308.165L659.004 302.089L683.26 305.455L650.633 313.091L619.188 308.165Z" fill="white"/>
<path d="M729.905 308.548C729.905 308.548 731.963 309.15 730.755 310.081C729.547 311.012 683.254 320.738 683.254 320.738L729.905 308.548Z" fill="#6C63FF"/>
<path d="M749.903 294.505C749.903 294.505 744.777 299.047 748.849 305.918L707.902 318.81L703.972 319.411L702.162 313.663L703.391 306.411V302.442L749.903 294.505Z" fill="#D5D6DB"/>
<path d="M620.598 291.567L677.27 284.069L752.369 292.753L705.725 304.943L620.598 291.567Z" fill="#3A3768"/>
<path d="M620.588 291.567C620.588 291.567 615.285 298.857 621.394 305.59L705.438 318.81C705.438 318.81 700.223 312.998 705.716 304.941L620.588 291.567Z" fill="#003469"/>
<path opacity="0.1" d="M620.588 291.567C620.588 291.567 615.285 298.857 621.394 305.59L705.438 318.81C705.438 318.81 700.223 312.998 705.716 304.941L679.138 300.765L620.588 291.567Z" fill="#212529"/>
<path opacity="0.1" d="M623.099 294.095C623.099 294.095 620.072 299.427 623.099 302.88Z" fill="black"/>
<path d="M705.446 318.81L752.368 304.276C752.368 304.276 754.99 304.687 753.294 306.083C751.597 307.478 706.351 320.205 706.351 320.205L621.402 305.59L705.446 318.81Z" fill="#3A3768"/>
<path opacity="0.1" d="M705.446 318.81L752.368 304.276C752.368 304.276 754.99 304.687 753.294 306.083C751.597 307.478 706.351 320.205 706.351 320.205L621.402 305.59L705.446 318.81Z" fill="black"/>
<path opacity="0.1" d="M701.603 306.411C701.603 306.411 697.078 310.352 701.603 316.264Z" fill="black"/>
<path opacity="0.1" d="M723.51 306.346L703.215 311.261L703.286 311.417L723.581 306.502L723.51 306.346Z" fill="black"/>
<path opacity="0.1" d="M727.577 305.856L703.211 312.582L703.291 312.736L727.657 306.01L727.577 305.856Z" fill="black"/>
<path opacity="0.1" d="M731.305 305.83L703.342 314.139L703.427 314.291L731.391 305.982L731.305 305.83Z" fill="black"/>
<path opacity="0.1" d="M735.368 305.119L703.672 315.513L703.765 315.662L735.461 305.269L735.368 305.119Z" fill="black"/>
<path opacity="0.1" d="M738.774 305.121L703.918 316.18L704.009 316.331L738.865 305.271L738.774 305.121Z" fill="black"/>
<path opacity="0.1" d="M746.238 304.201L704.447 317.303L704.537 317.454L746.327 304.352L746.238 304.201Z" fill="black"/>
<path opacity="0.45" d="M641.652 292.37L681.469 286.294L705.725 289.661L673.098 297.297L641.652 292.37Z" fill="white"/>
<path d="M752.37 292.753C752.37 292.753 754.427 293.356 753.221 294.285C752.015 295.215 705.727 304.941 705.727 304.941L752.37 292.753Z" fill="#3A3768"/>
<path d="M752.031 276.436C752.031 276.436 746.903 284.593 750.975 291.462L710.027 300.741L706.107 301.343L704.297 295.596L705.507 288.342V284.373L752.031 276.436Z" fill="#D5D6DB"/>
<path d="M622.733 273.5L679.408 266L754.507 274.684L707.861 286.874L622.733 273.5Z" fill="#7367F0"/>
<path d="M622.73 273.498C622.73 273.498 617.42 280.788 623.528 287.521L707.572 300.741C707.572 300.741 702.355 294.929 707.848 286.874L622.73 273.498Z" fill="#7367F0"/>
<path opacity="0.1" d="M622.73 273.498C622.73 273.498 617.42 280.788 623.528 287.521L707.572 300.741C707.572 300.741 702.355 294.929 707.848 286.874L622.73 273.498Z" fill="#7367F0"/>
<path opacity="0.1" d="M625.235 276.026C625.235 276.026 622.206 281.359 625.235 284.811Z" fill="black"/>
<path d="M707.581 300.741L754.501 289.82C754.501 289.82 757.125 290.231 755.428 291.626C753.732 293.022 708.486 302.136 708.486 302.136L623.537 287.521L707.581 300.741Z" fill="#6C63FF"/>
<path opacity="0.1" d="M707.581 300.741L754.501 289.82C754.501 289.82 757.125 290.231 755.428 291.626C753.732 293.022 708.486 302.136 708.486 302.136L623.537 287.521L707.581 300.741Z" fill="black"/>
<path opacity="0.1" d="M703.737 288.342C703.737 288.342 699.213 292.283 703.737 298.195Z" fill="black"/>
<path opacity="0.1" d="M725.644 288.277L705.35 293.192L705.421 293.347L725.716 288.433L725.644 288.277Z" fill="black"/>
<path opacity="0.1" d="M729.712 287.788L705.346 294.514L705.426 294.667L729.792 287.941L729.712 287.788Z" fill="black"/>
<path opacity="0.1" d="M733.438 287.763L705.475 296.071L705.56 296.223L733.524 287.915L733.438 287.763Z" fill="black"/>
<path opacity="0.1" d="M737.503 287.05L705.807 297.444L705.9 297.593L737.596 287.2L737.503 287.05Z" fill="black"/>
<path opacity="0.1" d="M740.913 287.053L706.057 298.112L706.147 298.263L741.003 287.203L740.913 287.053Z" fill="black"/>
<path opacity="0.1" d="M748.372 286.134L706.582 299.237L706.672 299.387L748.462 286.285L748.372 286.134Z" fill="black"/>
<path opacity="0.3" d="M643.787 274.301L683.603 268.225L707.86 271.592L675.233 279.228L643.787 274.301Z" fill="white"/>
<path d="M754.503 274.684C754.503 274.684 756.562 275.287 755.354 276.218C754.146 277.149 707.859 286.874 707.859 286.874L754.503 274.684Z" fill="#6C63FF"/>
<path d="M503.412 287.911V323.503L474.833 324.567V288.974L503.412 287.911Z" fill="#001B36" fill-opacity="0.98"/>
<path opacity="0.1" d="M503.263 319.051L503.412 324.567H474.833L474.781 321.177L503.263 319.051Z" fill="black"/>
<path d="M512.144 325.246L467.688 327.373C467.688 325.882 468.146 324.453 468.963 323.399C469.779 322.345 470.887 321.753 472.042 321.753L507.807 319.627C508.962 319.627 510.069 320.219 510.886 321.272C511.702 322.326 512.161 323.756 512.161 325.246H512.144Z" fill="#464A5F"/>
<path d="M568.34 287.313L410.764 293.693C410.401 293.694 410.042 293.603 409.706 293.424C409.371 293.246 409.066 292.984 408.81 292.653C408.553 292.323 408.349 291.93 408.21 291.498C408.072 291.065 408 290.602 408 290.134V167.939C408 167.471 408.072 167.008 408.21 166.575C408.349 166.143 408.553 165.75 408.81 165.42C409.066 165.089 409.371 164.827 409.706 164.649C410.042 164.47 410.401 164.379 410.764 164.38L568.34 158C568.703 157.999 569.062 158.09 569.397 158.269C569.733 158.447 570.037 158.709 570.294 159.04C570.551 159.37 570.754 159.763 570.893 160.195C571.032 160.628 571.104 161.091 571.104 161.559V283.717C571.108 284.188 571.039 284.655 570.902 285.092C570.764 285.529 570.561 285.926 570.304 286.26C570.047 286.595 569.741 286.86 569.404 287.041C569.067 287.222 568.705 287.314 568.34 287.313V287.313Z" fill="#0E0850" fill-opacity="0.74"/>
<path d="M562 278.62L419 285V179.388L562 173V278.62Z" fill="#F5F5F5"/>
<path d="M489.109 170.804C489.867 170.804 490.482 170.021 490.482 169.054C490.482 168.088 489.867 167.304 489.109 167.304C488.35 167.304 487.735 168.088 487.735 169.054C487.735 170.021 488.35 170.804 489.109 170.804Z" fill="white"/>
<path opacity="0.1" d="M503.384 293.376L474.896 294.439V293.745L503.384 292.681V293.376Z" fill="black"/>
<path opacity="0.2" d="M567.424 176.549L411.427 182.929V179.281L567.424 172.901V176.549Z" fill="black"/>
<path d="M237.85 320.602L237 365.049L258.684 423.776L259.109 374.927L237.85 320.602Z" fill="#3699FF"/>
<path opacity="0.1" d="M316.941 411.155H325.87L323.904 421.535L314.807 422.312L316.941 411.155Z" fill="black"/>
<path opacity="0.1" d="M335.225 413.898L347.555 407.314L345.81 419.683L334.33 420.643L335.225 413.898Z" fill="black"/>
<path opacity="0.1" d="M364.996 410.606H371.373L365.704 417.98L358.636 418.586L364.996 410.606Z" fill="black"/>
<path opacity="0.1" d="M697.502 382.62L702.817 389.354L695.164 390.005L691.559 385.353L697.502 382.62Z" fill="black"/>
<path opacity="0.1" d="M717.91 377.682L718.973 387.982L710.168 388.737L709.415 381.512L717.91 377.682Z" fill="black"/>
<path opacity="0.1" d="M749 385.433L739.699 386.222L738.317 379.328L745.554 368.342L749 385.433Z" fill="black"/>
<path d="M833.149 331.028L833.999 374.927L258.683 423.776L259.108 374.927L833.149 331.028Z" fill="#3699FF"/>
<path opacity="0.1" d="M267.612 384.255L399.86 376.573L400.285 406.753L268.463 413.887L267.612 384.255Z" fill="black"/>
<path d="M266.336 382.609L398.583 374.927L399.009 405.107L267.186 412.252L266.336 382.609Z" fill="white"/>
<path opacity="0.1" d="M408.789 375.475L707.706 352.977L707.28 381.512L407.938 406.205L408.789 375.475Z" fill="black"/>
<path d="M407.512 373.829L706.438 351.331L706.013 379.865L406.662 404.558L407.512 373.829Z" fill="white"/>
<path opacity="0.1" d="M712.817 351.88L826.774 342.551L827.624 370.537L714.093 380.414L712.817 351.88Z" fill="black"/>
<path d="M711.541 350.234L825.497 340.905L826.348 368.891L712.817 378.768L711.541 350.234Z" fill="white"/>
<path opacity="0.1" d="M342.008 395.511L325.848 396.061L325.881 397.706L342.041 397.156L342.008 395.511Z" fill="black"/>
<path d="M342.011 393.865L325.851 394.415L325.884 396.061L342.044 395.511L342.011 393.865Z" fill="#3699FF"/>
<path opacity="0.1" d="M654.968 371.912L638.808 372.461L638.841 374.107L655.001 373.557L654.968 371.912Z" fill="black"/>
<path d="M654.96 370.266L638.8 370.816L638.833 372.461L654.993 371.912L654.96 370.266Z" fill="#3699FF"/>
<path opacity="0.1" d="M479.355 385.081L463.195 385.631L463.229 387.277L479.389 386.727L479.355 385.081Z" fill="black"/>
<path d="M479.356 383.436L463.196 383.986L463.23 385.631L479.39 385.082L479.356 383.436Z" fill="#3699FF"/>
<path opacity="0.1" d="M780.401 360.939L764.241 361.489L764.275 363.134L780.435 362.585L780.401 360.939Z" fill="black"/>
<path d="M780.403 359.293L764.243 359.843L764.277 361.489L780.437 360.939L780.403 359.293Z" fill="#3699FF"/>
<path d="M755.76 452.31L749.569 448.64L718.77 430.36L718.345 422.129L747.646 438.992L753.634 442.433L755.76 452.31Z" fill="#3699FF"/>
<path d="M513.817 209.435L462.039 210.816L462.118 213.788L513.896 212.408L513.817 209.435Z" fill="#3F3D56"/>
<path d="M542.284 219.526L462.328 221.658L462.407 224.63L542.363 222.498L542.284 219.526Z" fill="#3699FF"/>
<path d="M527.763 230.135L462.601 231.873L462.68 234.845L527.842 233.107L527.763 230.135Z" fill="#3699FF"/>
<path d="M500.913 241.034L462.872 242.049L462.951 245.021L500.992 244.006L500.913 241.034Z" fill="#3F3D56"/>
<path d="M520.557 250.694L463.144 252.225L463.223 255.197L520.636 253.666L520.557 250.694Z" fill="#3F3D56"/>
<path d="M444.752 210.22L438.412 210.389L438.581 216.729L444.921 216.56L444.752 210.22Z" fill="#3F3D56"/>
<path d="M445.025 220.434L438.685 220.604L438.854 226.944L445.194 226.775L445.025 220.434Z" fill="#3699FF"/>
<path d="M445.297 230.649L438.957 230.818L439.126 237.158L445.466 236.989L445.297 230.649Z" fill="#3699FF"/>
<path d="M445.57 240.864L439.229 241.033L439.399 247.373L445.739 247.204L445.57 240.864Z" fill="#3F3D56"/>
<path d="M355 345H321C319.895 345 319 345.895 319 347V352C319 353.105 319.895 354 321 354H355C356.105 354 357 353.105 357 352V347C357 345.895 356.105 345 355 345Z" fill="#FFC995"/>
<path fill-rule="evenodd" clip-rule="evenodd" d="M329 316C333.293 302.085 335.699 287.419 336.217 272H339H340.783C341.301 287.419 343.707 302.085 348 316H354.5C363.06 316 370 322.94 370 331.5C370 340.06 363.06 347 354.5 347H321.5C312.94 347 306 340.06 306 331.5C306 322.94 312.94 316 321.5 316H329Z" fill="#FFDDBD"/>
<path fill-rule="evenodd" clip-rule="evenodd" d="M302.622 202.679C314.081 201.56 325.541 201 337 201C348.459 201 359.919 201.56 371.378 202.679L376 282.133C363 283.378 350 284 337 284C324 284 311 283.378 298 282.133L302.622 202.679Z" fill="#FFB46C"/>
<path d="M943.508 363.262C943.508 351.716 951.675 342.356 961.749 342.356H1046.37C1057.09 342.356 1065.5 352.904 1064.53 365.143L1058.57 440.801C1058.48 442.07 1058.48 443.346 1058.58 444.615L1064.48 517.433C1065.47 529.69 1057.06 540.273 1046.32 540.273H961.749C951.675 540.273 943.508 530.912 943.508 519.366V363.262Z" fill="#C4C4C4"/>
<path d="M1022.55 481.734H945.94C921.762 481.734 902.162 504.199 902.162 531.91V541.667C902.162 569.378 921.762 591.843 945.94 591.843H1022.55C1046.73 591.843 1066.33 569.378 1066.33 541.667V531.91C1066.33 504.199 1046.73 481.734 1022.55 481.734Z" fill="#C4C4C4"/>
<path d="M995.142 586.268H981.205V698.559H995.142V586.268Z" fill="#C4C4C4"/>
<path d="M945.94 705.588C945.94 699.731 950.084 694.983 955.193 694.983H1022.46C1027.57 694.983 1031.71 699.731 1031.71 705.588C1031.71 711.445 1027.57 716.193 1022.46 716.193H955.193C950.084 716.193 945.94 711.445 945.94 705.588Z" fill="#C4C4C4"/>
<path d="M936.058 568.868C908.85 554.907 970.26 591.146 1007.35 575.814C1044.44 560.483 1047.93 535.417 1047.93 535.417" stroke="#9E9E9E" stroke-width="4"/>
<path d="M925.875 582.086C896.895 567.715 973.725 611.193 1013.43 594.898C1053.13 578.603 1057.01 552.4 1057.01 552.4" stroke="#9E9E9E" stroke-width="14"/>
<path d="M1147.28 298.917C1153.1 308.22 1151.3 320.372 1143.04 327.591L1058.61 401.326C1046.99 411.475 1029.2 409.656 1019.87 397.365V397.365C1012.57 387.736 1012.66 374.394 1020.11 364.87L1031.8 349.91C1035.32 345.402 1039.57 341.515 1044.38 338.41L1116.22 292.004C1126.69 285.242 1140.67 288.354 1147.28 298.917V298.917Z" fill="#FF9B21"/>
<path d="M959.547 351.748C966.075 336.336 983.106 328.251 999.174 332.937L1024.93 340.448C1039.01 344.554 1048.69 357.461 1048.69 372.128L1048.69 402.577C1048.69 404.686 1048.48 406.789 1048.08 408.859L1031.32 495.307C1027.62 514.377 1008.33 526.143 989.682 520.704L934.787 504.694C915.827 499.165 905.937 478.331 913.639 460.145L959.547 351.748Z" fill="#FF9B21"/>
<rect x="965.644" y="308.222" width="92.003" height="47.95" rx="23.975" transform="rotate(15.8458 965.644 308.222)" fill="#FF9B21"/>
<path d="M1077.79 383.598L1056.37 399.855L1042.25 425.446L1028.41 417.952L1077.79 383.598Z" fill="#FF8510"/>
<rect x="1005.23" y="290.274" width="22.7559" height="56.8898" rx="8" transform="rotate(15.5972 1005.23 290.274)" fill="#B28B67"/>
<path d="M1032.58 259.825C1035.5 253.325 1042.94 250.179 1049.64 252.613L1135.29 283.743C1145.78 287.554 1150.82 299.471 1146.25 309.648V309.648C1141.75 319.656 1129.8 323.868 1120.02 318.888L1038.82 277.518C1032.36 274.226 1029.61 266.441 1032.58 259.825V259.825Z" fill="#FF9B21"/>
<path d="M1013.67 261.042C1013.87 253.92 1008.55 247.849 1001.46 247.124L910.793 237.859C899.694 236.725 889.97 245.259 889.654 256.411V256.411C889.343 267.378 898.271 276.374 909.24 276.146L1000.36 274.257C1007.61 274.107 1013.47 268.293 1013.67 261.042V261.042Z" fill="#FF9B21"/>
<path d="M894.526 244.639C885.836 250.115 882.462 261.127 886.595 270.531L935.369 381.52C941.823 396.207 960.767 400.258 972.664 389.497V389.497C978.965 383.797 981.7 375.141 979.818 366.855L974.253 342.351C972.929 336.52 970.695 330.933 967.633 325.796L923.4 251.57C917.433 241.556 904.388 238.426 894.526 244.639V244.639Z" fill="#FF9B21"/>
<path d="M1049.87 282.3C1045.71 304.978 1030.41 326.169 1012 322.798C993.587 319.428 986.778 294.188 990.93 271.509C995.082 248.831 985.888 228.147 1027.92 235.842C1069.95 243.537 1054.02 259.621 1049.87 282.3Z" fill="#B28B67"/>
<path d="M1032.47 269.41C1020.94 266.226 1016.57 250.314 1005.1 254.998C994.387 259.375 989.874 283.546 989.874 283.546C989.874 283.546 977.922 234.815 996.067 219.919C1014.82 204.524 1029.04 232.85 1051.08 237.303C1051.08 237.303 1057.21 237.545 1060.76 239.075C1078.86 246.877 1039.1 315.285 1040.9 292.889C1041.58 284.503 1049.95 277.361 1044.79 271.665C1041.35 267.867 1037.19 270.713 1032.47 269.41Z" fill="black" stroke="#001B36"/>
<path d="M991.352 337.999C992.796 333.687 997.538 331.445 1001.79 333.064L1009.34 335.941C1012.81 337.266 1014.92 340.815 1014.41 344.502L992.865 501.859C992.246 506.376 987.983 509.464 983.498 508.643L946.118 501.799C941.328 500.922 938.426 496.006 939.973 491.389L991.352 337.999Z" fill="white"/>
<path d="M926.404 521.441L871.068 522.544L874.346 686.977C905.286 703.362 934.276 684.931 934.276 684.931L928.132 608.119L926.404 521.441Z" fill="#0066CF" stroke="#3369FF"/>
<path d="M1032.64 524.536C1031.86 485.231 1031.86 485.231 1031.86 485.231C983.674 513.206 890.288 455.685 848.457 488.886C805.074 523.318 806.832 626.25 806.832 626.25C806.832 626.25 800.338 630.203 831.444 645.421C862.549 660.639 872.235 527.734 883.007 539.535C893.779 551.335 1021.74 606.383 1032.64 524.536Z" fill="#037FFF" stroke="#037FFF"/>
<path fill-rule="evenodd" clip-rule="evenodd" d="M833.901 667.779L846.591 643.151L822.527 629.258C806.504 630.659 787.874 628.524 766.636 622.857L764 627.422L807.544 652.562L823.76 658.88L822.442 661.163L833.901 667.779Z" fill="#191847"/>
<path fill-rule="evenodd" clip-rule="evenodd" d="M938.832 718.304L935.915 686.541L911.259 687.89C900.148 699.139 885.355 708.563 866.879 716.161L867.211 722.224L911.827 719.782L926.924 715.915L927.09 718.946L938.832 718.304Z" fill="#191847"/>
<path d="M998.686 470.624L1035.69 470.625L1035.69 534L988.231 515.421L998.686 470.624Z" fill="#FF9B21"/>
<path d="M997.511 356.615L1010.35 334.892L995.138 331.493L997.511 356.615Z" fill="#B28B67"/>
<path fill-rule="evenodd" clip-rule="evenodd" d="M23.8855 375.265C20.3682 373.521 15.6793 375.544 17.6353 380.155C19.7305 385.092 27.4772 385.153 31.8521 385.055C31.4142 385.032 30.0042 380.505 29.5214 379.821C28.0978 377.802 26.0478 376.34 23.8855 375.265ZM64.411 463.787C65.2984 464.546 64.4832 463.858 64.411 463.787V463.787ZM20.4972 397.597C18.4389 399.171 18.3407 401.949 20.0221 403.829C22.0242 406.068 25.68 405.986 28.4089 405.768C29.6434 405.669 36.2346 405.141 34.6723 404.063C34.7925 404.108 35.0435 404.218 35.3121 404.368C35.4566 404.896 35.6084 405.422 35.7666 405.946C35.7278 405.969 35.6948 405.993 35.6533 406.016C35.6982 405.996 35.7297 405.975 35.7692 405.955C37.3543 411.192 39.6105 416.179 42.5649 420.844C41.4595 420.408 40.3147 420.079 39.1535 419.932C35.7149 419.497 28.4811 422.169 32.3275 426.748C36.0156 431.137 41.7573 426.428 45.943 425.779C50.003 431.445 54.4792 436.875 59.1704 442.124C58.8829 442.214 58.6306 442.402 58.4861 442.694C56.6041 441.739 54.6431 440.373 52.9013 440.003C50.388 439.471 45.2343 439.148 43.3347 441.397C40.9983 444.163 43.5028 446.41 46.2631 446.941C50.2657 447.71 55.5053 445.755 59.3567 444.433C59.7972 444.511 60.2781 444.382 60.5655 444.03C60.6506 444.002 60.7356 443.975 60.8185 443.948C65.5691 449.171 70.5014 454.222 75.4037 459.162C75.3515 459.159 75.2994 459.156 75.2449 459.153C73.9662 458.315 72.5945 457.626 71.1077 457.266C67.6683 456.428 63.6215 456.424 60.8304 458.912C58.0502 461.39 57.0653 465.724 59.9416 468.506C65.6989 474.076 74.1814 461.377 77.0855 460.847C82.0674 465.814 87.3352 470.456 92.6857 475.003C92.0781 474.818 91.4549 474.682 90.8109 474.621C85.5641 474.119 73.249 480.551 79.688 486.88C85.2992 492.395 91.7938 481.78 96.3157 478.068C101.358 482.306 106.427 486.516 111.354 490.889C108.667 490.176 106.07 490.071 103.189 490.941C100.208 491.843 95.3984 494.094 97.2828 498.119C99.1994 502.211 104.975 500.349 107.984 499.05C109.624 498.341 112.914 495.949 115.803 494.941C123.665 502.364 130.475 510.54 135.631 520.171C138.849 526.185 141.292 532.609 143.011 539.213C144.109 543.427 146.271 550.506 145.838 555.992C147.901 545.011 144.171 531.824 140.152 522.009C136.457 512.984 130.926 505.061 124.449 497.93C126.074 493.041 139.756 485.989 131.577 481.447C127.234 479.045 122.785 483.03 121.836 487.251C121.184 490.151 122.177 493.796 123.232 496.611C121.194 494.437 119.076 492.333 116.893 490.298C113.876 487.487 110.787 484.757 107.669 482.062C112.808 477.234 117.671 463.433 110.781 461.176C100.607 457.853 105.506 476.678 106.215 480.206C106.417 480.218 106.574 480.157 106.689 480.026C106.632 480.349 106.566 480.695 106.485 481.043C100.517 475.911 94.4598 470.88 88.6024 465.625C89.1301 465.235 89.9691 463.745 90.6284 462.952C92.1165 461.163 93.5402 459.295 94.5808 457.203C96.2244 453.897 97.8096 448.624 93.4526 446.679C88.7142 444.56 86.4625 450.525 86.4294 454.083C86.4069 456.543 87.0771 458.881 87.4262 461.293C87.5353 462.045 87.1151 465.436 88.1399 463.977C88.0916 464.515 88.0846 464.905 88.1086 465.181C87.057 464.233 86.0135 463.274 84.9766 462.309C85.0246 462.187 85.0602 462.054 85.0683 461.9C85.1239 460.839 84.0565 460.431 83.3079 460.742C81.9397 459.441 80.5849 458.125 79.2542 456.782C76.434 453.937 73.5728 451.011 70.7314 448.023C71.3479 447.494 71.1027 446.76 71.6792 446.198C72.2548 445.637 73.3885 445.327 74.0653 444.806C75.7677 443.494 77.1793 441.584 78.2003 439.704C79.8858 436.597 82.064 430.08 77.1401 428.599C72.0648 427.071 69.4887 433.344 69.1623 437.266C69.0988 438.026 69.6678 444.873 70.1033 447.359C64.8458 441.805 59.6747 436.044 54.9898 430.181C56.4102 430.168 60.4375 427.258 61.2517 426.464C63.2382 424.527 66.3961 420.247 62.9134 417.982C59.8167 415.973 55.9997 418.883 54.6755 421.711C54.4578 422.176 53.6903 426.51 53.6305 428.455C51.6914 425.969 49.8417 423.468 48.1208 420.96C46.9732 419.292 45.9007 417.58 44.8973 415.832C45.1389 415.695 45.3661 415.456 45.5807 415.159C50.7454 414.283 57.33 406.224 51.2636 403.421C48.3753 402.088 45.243 404.839 43.8281 407.093C43.5383 407.553 43.0688 409.871 42.6867 411.699C39.7999 405.907 37.5939 399.776 35.9149 393.489C36.3645 393.377 36.7452 393.034 36.7954 392.443C39.3029 391.014 41.283 389.823 43.0334 387.074C44.1209 385.367 46.0792 381.466 42.884 380.518C38.7259 379.285 36.1139 385.636 35.7737 388.765C35.7341 389.128 35.7356 390.184 35.7493 391.152C35.6049 391.132 35.459 391.134 35.3159 391.16C34.3609 387.267 33.5986 383.324 32.9923 379.374C35.2619 378.644 35.6543 366.725 34.1432 365.028C30.7656 361.227 28.3826 366.717 28.5629 369.618C28.776 373.039 30.3261 376.151 32.172 378.913C32.37 379.205 32.3135 379.191 32.3648 378.784C32.3932 378.985 32.4606 379.134 32.5605 379.241C32.4652 381.042 32.2796 382.885 32.3687 384.479C32.6243 389.042 33.1559 393.632 33.9276 398.136C34.1154 399.232 34.3304 400.318 34.5714 401.396C32.7472 399.841 30.2877 398.461 29.3254 398.029C26.8276 396.909 22.9782 395.701 20.4972 397.597ZM146.131 556.007C146.015 557.598 145.728 559.055 145.192 560.257C145.594 558.889 145.902 557.467 146.131 556.007Z" fill="#F5F5F5"/>
<g opacity="0.7">
<path opacity="0.7" fill-rule="evenodd" clip-rule="evenodd" d="M92.3039 483.042C102.072 482.536 114.153 488.238 115.196 498.856C115.953 506.571 115.718 514.264 116.89 521.968C117.827 528.125 119.808 534.035 122.51 539.643C125.109 545.036 130.499 549.627 131.901 555.388C132.795 559.059 132.294 564.223 131.062 567.814C129.564 572.18 130.36 571.835 133.346 575.498C139.197 582.677 144.466 590.039 148.191 598.613C153.558 610.963 157.077 625.398 155.085 638.917C154.831 640.634 154.531 646.794 152.167 647.225C149.527 647.706 150.761 644.183 150.902 643.045C151.801 635.783 152.599 629.435 151.515 622.06C147.334 593.603 126.92 574.854 113.627 550.702C112.897 549.457 111.354 546.491 110.281 544.535C108.588 541.446 106.886 535.568 104.593 533.277C100.276 528.962 104.245 537.637 105.086 539.293C106.15 541.388 107.32 543.614 108.41 545.45C113.397 553.959 118.964 563.247 124.115 572.018C101.838 577.093 86.1496 550.312 80.1716 532.705C75.2463 518.199 69.3532 484.284 92.3039 483.042Z" fill="#69B3FF"/>
<path opacity="0.7" fill-rule="evenodd" clip-rule="evenodd" d="M223.231 456.104C206.901 457.4 196.418 468.175 191.538 483.247C188.907 491.369 188.606 499.713 187.144 508.06C184.945 520.617 180.215 530.134 170.969 539.081C168.105 541.852 165.995 544.697 164.495 547.74C161.517 550.779 158.924 554.218 157.02 558.422C154.587 563.792 153.899 570.234 156.707 575.587C157.463 577.026 159.347 579.915 161.299 581.228C153.989 596.797 149.969 613.849 150.422 630.88C150.696 641.16 151.198 651.445 151.783 661.712C151.941 664.469 152.839 669.022 154.187 664.398C155.422 660.169 153.874 653.53 153.731 649.112C153.034 627.588 152.438 608.018 161.298 587.909C162.227 585.802 163.212 583.711 164.238 581.637C164.298 581.602 164.354 581.56 164.411 581.519C164.45 581.549 164.486 581.582 164.525 581.611C164.59 581.494 164.68 581.355 164.785 581.2C165.079 580.896 165.336 580.513 165.58 580.084C166.366 578.995 167.255 577.716 167.26 577.015C167.26 577.01 167.257 577.001 167.257 576.996C172.742 568.043 179.024 559.583 185.441 551.288C185.393 551.348 192.402 541.806 191.318 547.083C190.796 549.626 185.64 554.469 183.558 557.163C178.953 563.156 173.544 570.749 169.05 578.092C168.445 578.439 167.591 580.146 166.973 581.417C166.631 582.061 166.313 582.71 166 583.276C181.925 588.537 194.313 577.939 202.761 565.612C202.771 565.597 202.78 565.582 202.789 565.568C205.36 562.161 207.993 558.779 211.283 556.086C216.772 551.594 222.649 550.801 229.121 548.59C246.768 542.56 254.271 519.689 256.654 502.719C259.342 483.574 246.191 454.216 223.231 456.104Z" fill="#69B3FF"/>
<path opacity="0.7" fill-rule="evenodd" clip-rule="evenodd" d="M190.974 402.49C174.213 419.933 166.116 444.128 159.705 466.873C152.544 492.277 147.814 518.073 147.632 544.486C147.513 561.839 147.041 579.3 148.054 596.633C148.413 602.789 149.027 608.955 150.003 615.045C150.083 615.546 152.266 629.143 154.355 625.974C155.543 624.172 152.117 611.869 151.858 609.82C150.402 598.278 150.064 586.651 150.135 575.026C150.252 555.886 149.687 536.843 151.627 517.773C151.916 514.926 152.145 511.936 152.822 509.15C153.54 506.189 152.625 507.482 154.964 506.309C157.237 505.169 160.045 505.332 162.403 503.903C171.757 498.231 176.542 483.662 180.266 474.102C184.526 463.171 187.114 451.514 189.182 440.01C190.7 431.558 191.786 423.157 192.4 414.596C192.594 411.898 192.605 409.076 193.135 406.423C193.278 405.708 193.995 404.442 193.969 403.808C193.914 402.467 193.104 401.678 193.038 400.551C192.336 401.182 191.648 401.829 190.974 402.49Z" fill="#69B3FF"/>
<path opacity="0.7" fill-rule="evenodd" clip-rule="evenodd" d="M99.5859 634.897C99.5859 663.744 122.971 687.13 151.819 687.13C180.666 687.13 204.052 663.744 204.052 634.897" fill="#7367F0"/>
<path opacity="0.7" fill-rule="evenodd" clip-rule="evenodd" d="M156.01 635.063H153.25C153.442 631.6 153.694 628.144 154.273 624.719C156.487 611.623 163.41 592.389 178.594 590.263C179.154 590.184 181.214 590.171 183.71 590.317C184.893 589.656 186.218 589.256 187.615 589.164C200.542 588.211 214.979 598.64 221.214 609.494C226.241 618.244 225.394 629.734 222.289 639.031C220.21 645.255 215.672 654.129 208.105 654.215C198.637 654.323 198.181 642.622 197.998 635.781C197.754 626.687 196.605 618.764 189.439 612.565C187.769 611.121 185.943 609.85 184.256 608.426C181.614 606.197 178.695 603.915 178.355 600.227C177.885 595.14 180.757 594.224 185.142 595.169C185.889 595.33 193.418 598.709 192.304 596.038C191.963 595.223 190.72 594.576 189.151 594.092C185.091 593.65 180.249 593.138 178.856 593.444C163.834 596.74 157.985 617.549 156.431 630.77C156.264 632.197 156.128 633.629 156.01 635.063V635.063Z" fill="#69B3FF"/>
</g>
<defs>
<linearGradient id="paint0_linear" x1="136.5" y1="138" x2="136.5" y2="7" gradientUnits="userSpaceOnUse">
<stop stop-color="#808080" stop-opacity="0.25"/>
<stop offset="0.54" stop-color="#808080" stop-opacity="0.12"/>
<stop offset="1" stop-color="#808080" stop-opacity="0.1"/>
</linearGradient>
</defs>
</svg>
